<?xml version="1.0" encoding="UTF-8" standalone="no" ?>
<COLLADA xmlns="http://www.collada.org/2005/11/COLLADASchema" version="1.4.1">
  <asset>
    <contributor>
      <author>Assimp</author>
      <authoring_tool>THREE.GLTFExporter r178</authoring_tool>
    </contributor>
    <created>2025-12-15T12:00:45</created>
    <modified>2025-12-15T12:00:45</modified>
    <unit name="meter" meter="1" />
    <up_axis>Y_UP</up_axis>
  </asset>
  <library_images>
    <image id="Material_23-diffuse-image">
      <init_from>bean_texture.jpg</init_from>
    </image>
  </library_images>
  <library_effects>
    <effect id="Material_23-fx" name="Material_23">
      <profile_COMMON>
        <newparam sid="Material_23-diffuse-surface">
          <surface type="2D">
            <init_from>Material_23-diffuse-image</init_from>
          </surface>
        </newparam>
        <newparam sid="Material_23-diffuse-sampler">
          <sampler2D>
            <source>Material_23-diffuse-surface</source>
          </sampler2D>
        </newparam>
        <technique sid="standard">
          <phong>
            <emission>
              <color sid="emission">0   0   0   1</color>
            </emission>
            <diffuse>
              <texture texture="Material_23-diffuse-sampler" texcoord="CHANNEL0" />
            </diffuse>
            <shininess>
              <float sid="shininess">159.999985</float>
            </shininess>
            <transparency>
              <float sid="transparency">1</float>
            </transparency>
          </phong>
        </technique>
      </profile_COMMON>
    </effect>
    <effect id="material_1-fx" name="">
      <profile_COMMON>
        <technique sid="standard">
          <phong>
            <emission>
              <color sid="emission">0   0   0   1</color>
            </emission>
            <diffuse>
              <color sid="diffuse">1   1   1   1</color>
            </diffuse>
            <shininess>
              <float sid="shininess">0</float>
            </shininess>
            <transparency>
              <float sid="transparency">1</float>
            </transparency>
          </phong>
        </technique>
      </profile_COMMON>
    </effect>
  </library_effects>
  <library_materials>
    <material id="Material_23" name="Material_23">
      <instance_effect url="#Material_23-fx"/>
    </material>
    <material id="material_1" name="">
      <instance_effect url="#material_1-fx"/>
    </material>
  </library_materials>
  <library_geometries>
    <geometry id="meshesQ0S" name="meshes[0]" >
      <mesh>
        <source id="meshesQ0S-positions" name="meshesQ0S-positions">
          <float_array id="meshesQ0S-positions-array" count="2217"> -0.311774492 1.26581573 0.27860105 -0.237746835 1.29740405 0.194949985 -0.425141692 1.26329255 0.238978982 -0.458990455 1.24191427 0.323786139 -0.0427474976 1.33924937 0.0725626945 -0.381014705 1.29008341 0.103325605 -0.677620411 1.21348667 0.145650983 -0.670616627 1.19605517 0.270132184 -0.640581846 1.17803621 0.344094157 -0.927024722 1.08787155 0.28058064 -0.889171481 1.07108164 0.34148705 -0.956399977 1.10178423 0.159380794 -1.19793558 0.953272581 0.154883981 -1.16056514 0.940575361 0.275801301 -1.10870695 0.911625862 0.34494698 -1.10870695 0.911625862 0.34494698 -1.16056514 0.940575361 0.275801301 -1.34145641 0.754378557 0.265621305 -1.30415499 0.731779337 0.326892734 -1.19793558 0.953272581 0.154883981 -1.38537586 0.765105009 0.145713568 -1.51732731 0.540970325 0.135218382 -1.46851635 0.533098459 0.253856778 -1.42620635 0.49538064 0.322051883 -1.54038918 0.285554647 0.244725347 -1.50854278 0.261886358 0.304437518 -1.59214866 0.289856911 0.127103686 -1.6098597 0.0267217159 0.124019265 -1.55733347 0.026271224 0.241250157 -1.52154338 0.0258661509 0.301416993 -1.5168829 -0.228844881 0.244725585 -1.48766565 -0.20674336 0.304437757 -1.56772053 -0.232025981 0.127104163 -1.46674967 -0.471938372 0.135218859 -1.41998744 -0.465739608 0.25385654 -1.38346481 -0.431958795 0.32205236 -1.26877975 -0.674687028 0.265621305 -1.23677683 -0.655723929 0.326893449 -1.30943716 -0.68312788 0.145713568 -1.10381126 -0.861964107 0.154883742 -1.07057905 -0.85195291 0.275801063 -1.0274893 -0.828813195 0.344946504 -1.0274893 -0.828813195 0.344946504 -1.07057905 -0.85195291 0.275801063 -0.832698345 -0.997110367 0.28058064 -0.800916553 -0.984284759 0.341486573 -1.10381126 -0.861964107 0.154883742 -0.857847095 -1.00830591 0.159382224 -0.581614971 -1.12627017 0.145477653 -0.571490645 -1.11161244 0.269799113 -0.530721545 -1.09825516 0.343208909 -0.301368952 -1.19402242 0.236623168 -0.303038478 -1.17614675 0.319767594 -0.281948686 -1.21703923 0.102132797 0.0594525337 -1.2829423 0.0707805157 -0.0834099054 -1.24223542 0.191890836 -0.113861799 -1.21354985 0.273235917 0.28827703 -1.24679112 0.247429252 0.227953792 -1.26957273 0.17419827 0.424861312 -1.25964129 0.194657207 0.449915051 -1.2414403 0.270481229 0.388652921 -1.28039479 0.0707142353 0.695034862 -1.23482561 0.0876666307 0.689137816 -1.21713233 0.200459123 0.659063935 -1.19569588 0.269243836 0.972518563 -1.12468171 0.192963481 0.936851144 -1.10511804 0.247812867 0.998928428 -1.1402595 0.0853093863 1.27996671 -0.994004905 0.0769594908 1.2443217 -0.979927123 0.182897687 1.19379652 -0.947842658 0.243076444 1.19379652 -0.947842658 0.243076444 1.2443217 -0.979927123 0.182897687 1.46741569 -0.784764647 0.178260684 1.4296385 -0.760414481 0.230679393 1.27996671 -0.994004905 0.0769594908 1.51137865 -0.796364784 0.073307395 1.67549646 -0.555849791 0.07289958 1.62521589 -0.547569871 0.177427411 1.58029997 -0.507203102 0.235591769 1.70576131 -0.279168487 0.178182244 1.67120159 -0.253661633 0.229958892 1.75943506 -0.283485651 0.0737663507 1.76413333 0.0060813427 0.0742726326 1.71018445 0.00607264042 0.178678155 1.67234027 0.00606477261 0.230334878 1.64670789 0.29255724 0.178182244 1.61797297 0.266821384 0.22995913 1.69822419 0.296929598 0.0737663507 1.57669127 0.572932243 0.0728998184 1.52948415 0.564489365 0.177426934 1.49201334 0.523412943 0.235592484 1.36711752 0.80697751 0.178260684 1.33259761 0.781985998 0.23067987 1.40873301 0.818892241 0.0733076334 1.19942749 1.0231688 0.0769593716 1.16438282 1.00861263 0.182897449 1.11557209 0.975479603 0.243075967 1.11557209 0.975479603 0.243075967 1.16438282 1.00861263 0.182897449 0.920751452 1.16064978 0.192963481 0.88459599 1.14039445 0.247813344 1.19942749 1.0231688 0.0769593716 0.948211551 1.17686987 0.0853093863 0.657688975 1.2786262 0.0880316496 0.645903468 1.26033354 0.201112628 0.596686244 1.23778963 0.271125436 0.352811456 1.30844927 0.197393298 0.350289702 1.28984356 0.275347829 0.33280766 1.33014178 0.0722144842 0.112273335 1.32218099 0.177044749 0.139887691 1.2978673 0.252866626 -0.00929236412 1.36845088 -0.313238621 -0.00592446327 1.343292 -0.581855297 -0.370953083 1.30333233 -0.578315496 -0.377011538 1.32690096 -0.302841544 -0.00541460514 1.27947116 -0.873453677 -0.350480556 1.24243736 -0.872041762 -0.679513335 1.16967487 -0.871116519 -0.718368173 1.22769713 -0.576107144 -0.725390434 1.24959612 -0.293193102 -1.03074396 1.11596179 -0.575623751 -1.03837609 1.13656425 -0.29062283 -0.976684272 1.06118464 -0.870819271 -1.23034 0.916336536 -0.871128082 -1.29561722 0.966259241 -0.576798201 -1.30285072 0.985215664 -0.2932477 -1.30285072 0.985215664 -0.2932477 -1.29561722 0.966259241 -0.576798201 -1.50385761 0.776108742 -0.579100609 -1.50939846 0.792238951 -0.298149824 -1.23034 0.916336536 -0.871128082 -1.43132079 0.733993292 -0.871857762 -1.57581007 0.5181849 -0.872719228 -1.65247536 0.549061775 -0.581711531 -1.65584362 0.56095624 -0.303641796 -1.73799932 0.294284105 -0.583723068 -1.73953497 0.300805092 -0.307853341 -1.65961373 0.277419806 -0.87339294 -1.68129683 0.0254358053 -0.873650551 -1.75921679 0.0271905661 -0.584486485 -1.75966406 0.0278911591 -0.309449315 -1.71259594 -0.235281944 -0.583723426 -1.71264684 -0.240038753 -0.307853818 -1.63778245 -0.22277689 -0.873393238 -1.53097761 -0.453884244 -0.872719288 -1.59971952 -0.4782691 -0.581711531 -1.599751 -0.487495542 -0.303641796 -1.42443681 -0.69171834 -0.57910049 -1.42461491 -0.70417726 -0.298150301 -1.36449647 -0.658465147 -0.871858001 -1.14775586 -0.832607627 -0.871128321 -1.19706583 -0.872112274 -0.576797843 -1.19746327 -0.886755109 -0.293248296 -1.19746327 -0.886755109 -0.293248296 -1.19706583 -0.872112274 -0.576797843 -0.927667022 -1.01961863 -0.575624108 -0.928309441 -1.03587365 -0.290623188 -1.14775586 -0.832607627 -0.871128321 -0.889913678 -0.975386441 -0.87081939 -0.601241946 -1.08814287 -0.871116638 -0.62698245 -1.13678098 -0.576107502 -0.627458811 -1.15499401 -0.293204188 -0.30283463 -1.22310734 -0.578315616 -0.302156806 -1.24430454 -0.302915335 -0.289606094 -1.16973495 -0.872042 0.0370372534 -1.21737695 -0.873454094 0.0370805264 -1.27553558 -0.581855416 0.0391924381 -1.29951417 -0.313376546 0.385254741 -1.28638494 -0.586011291 0.387992024 -1.31122792 -0.317864895 0.370872378 -1.22446573 -0.875095069 0.702703118 -1.18537116 -0.876674891 0.732746005 -1.24868751 -0.589976072 0.736119866 -1.27297497 -0.320330858 1.06705916 -1.15617085 -0.593085766 1.07215297 -1.17935896 -0.324636221 1.02012503 -1.09489918 -0.877950788 1.30779588 -0.953062654 -0.87879771 1.37187135 -1.0084033 -0.595013738 1.37928355 -1.02942038 -0.328269839 1.37928355 -1.02942038 -0.328269839 1.37187135 -1.0084033 -0.595013738 1.62510407 -0.808239698 -0.595806837 1.63446915 -0.825593829 -0.32961309 1.30779588 -0.953062654 -0.87879771 1.54583561 -0.762657404 -0.87922132 1.71685374 -0.531806111 -0.879340827 1.80668247 -0.564331532 -0.595828652 1.81688488 -0.576736927 -0.329432368 1.90131533 -0.287909985 -0.595567226 1.910869 -0.294384122 -0.328751683 1.80744565 -0.27095449 -0.879319072 1.81711304 0.006057024 -0.87929368 1.90882933 0.00608992577 -0.595426202 1.91666496 0.0061044693 -0.328412056 1.83783424 0.301413298 -0.595567107 1.84395111 0.307977438 -0.328751922 1.75234139 0.284240246 -0.879318953 1.62681115 0.548425198 -0.879341066 1.70466411 0.581585646 -0.595828891 1.7100569 0.594251394 -0.329432368 1.52006137 0.831095934 -0.595807195 1.52594697 0.848948717 -0.329613209 1.45001733 0.784293652 -0.879221499 1.22926295 0.980865002 -0.878797591 1.29082382 1.03806853 -0.595013618 1.2977072 1.0598402 -0.328269958 1.2977072 1.0598402 -0.328269958 1.29082382 1.03806853 -0.595013618 1.01759303 1.19345117 -0.593085766 1.02485645 1.21764445 -0.324636102 1.22926295 0.980865002 -0.878797591 0.966790557 1.12967777 -0.877950549 0.667577624 1.22803807 -0.87667501 0.704233527 1.29457235 -0.589976192 0.709982514 1.31994915 -0.32030797 0.358290792 1.34234428 -0.586011291 0.359842181 1.36810374 -0.317767262 0.339154124 1.27621698 -0.87509501 -0.00405406952 1.17009473 -1.15318346 -0.3136127 1.13764977 -1.15275872 -0.00160646439 1.01434779 -1.41226125 -0.263595581 0.988072157 -1.41217911 -0.514155865 0.929414511 -1.41211629 -0.60928309 1.07027364 -1.15245998 -0.877562642 0.968494654 -1.15232348 -0.742460966 0.839112282 -1.4120791 -0.939947963 0.719335318 -1.4120667 -1.10815549 0.833188295 -1.15234423 -0.877562642 0.968494654 -1.15232348 -0.742460966 0.839112282 -1.4120791 -1.10815549 0.833188295 -1.15234423 -1.10815549 0.833188295 -1.15234423 -1.29234588 0.664854288 -1.15247905 -1.09886086 0.572002172 -1.41207325 -1.29234588 0.664854288 -1.15247905 -1.21477389 0.40181303 -1.41208947 -1.42575908 0.468020439 -1.15265691 -1.09886086 0.572002172 -1.41207325 -1.50380516 0.250203133 -1.15280223 -1.28318751 0.215065956 -1.41210437 -1.30271292 0.0205671787 -1.41211045 -1.52500963 0.02278018 -1.15285826 -1.48694694 -0.201996803 -1.15280187 -1.27152514 -0.172392726 -1.41210461 -1.19160128 -0.355260968 -1.41208947 -1.39169538 -0.413001299 -1.15265703 -1.24230003 -0.601814508 -1.15247869 -1.0652833 -0.52101171 -1.41207314 -0.898681402 -0.664964318 -1.41206646 -1.0466032 -0.764122128 -1.1523447 -1.24230003 -0.601814508 -1.15247869 -1.0652833 -0.52101171 -1.41207314 -1.0466032 -0.764122128 -1.1523447 -1.0466032 -0.764122128 -1.1523447 -0.812217712 -0.897669911 -1.15232325 -0.697725177 -0.783633471 -1.41207886 -0.812217712 -0.897669911 -1.15232325 -0.470211387 -0.875670314 -1.41211629 -0.548365712 -1.00228 -1.15245998 -0.697725177 -0.783633471 -1.41207886 -0.262665391 -1.07602811 -1.1527586 -0.223108768 -0.938672483 -1.41217899 0.0357316732 -0.970671117 -1.41226137 0.0367617607 -1.11651373 -1.15318346 0.341783643 -1.11859953 -1.1536696 0.298297524 -0.968029678 -1.41235375 0.555660367 -0.92868793 -1.41244471 0.643051028 -1.07845163 -1.1541431 0.928685784 -0.992395878 -1.15454102 0.797234893 -0.850565553 -1.41252458 1.01201761 -0.734966874 -1.41258705 1.1851629 -0.861086607 -1.15482879 0.928685784 -0.992395878 -1.15454102 0.797234893 -0.850565553 -1.41252458 1.1851629 -0.861086607 -1.15482879 1.1851629 -0.861086607 -1.15482879 1.39605939 -0.687248588 -1.15500259 1.18755281 -0.584519148 -1.41263032 1.39605939 -0.687248588 -1.15500259 1.31432784 -0.405438662 -1.41265666 1.54787314 -0.478172898 -1.15508628 1.18755281 -0.584519148 -1.41263032 1.63000166 -0.243050694 -1.15511549 1.38460481 -0.205302119 -1.41267002 1.39747131 0.00603210926 -1.41267395 1.64170229 0.00602269173 -1.15512145 1.58687437 0.256049395 -1.1551156 1.35453665 0.218075037 -1.4126699 1.26233494 0.420254707 -1.41265666 1.47559083 0.49389863 -1.1550864 1.3153497 0.707130194 -1.15500236 1.12615407 0.602499962 -1.41263032 0.952576995 0.756985426 -1.41258693 1.11344087 0.886167049 -1.15482891 1.3153497 0.707130194 -1.15500236 1.12615407 0.602499962 -1.41263032 1.11344087 0.886167049 -1.15482891 1.11344087 0.886167049 -1.15482891 0.873601794 1.02344823 -1.15454102 0.746125102 0.877285957 -1.41252446 0.873601794 1.02344823 -1.15454102 0.513246655 0.96067524 -1.41244459 0.601834416 1.11624384 -1.1541431 0.746125102 0.877285957 -1.41252446 0.30549252 1.16394687 -1.15366948 0.260843158 1.00571847 -1.41235363 -0.00160646439 1.01434779 -1.41226125 0.00209617615 0.812572479 -1.63680243 -0.202996373 0.794051886 -1.63679552 -0.263595581 0.988072157 -1.41217911 0.00597238541 0.619808197 -1.75259233 -0.11490345 0.491527796 -1.79394114 -0.295205951 0.572764874 -1.75259149 -0.399289608 0.748086929 -1.6367898 -0.514155865 0.929414511 -1.41211629 -0.578709722 0.674865961 -1.63678575 -0.341195464 0.419735193 -1.79394102 -0.547610998 0.442586422 -1.75259089 -0.734679699 0.577383041 -1.63678336 -0.860920072 0.458483696 -1.63678229 -0.512296438 0.285904884 -1.7939409 -0.713330984 0.248249054 -1.75259066 -0.953546822 0.322466373 -1.63678205 -1.21477389 0.40181303 -1.41208947 -1.00867033 0.174245596 -1.63678229 -1.28318751 0.215065956 -1.41210437 -0.602771878 0.111979961 -1.7939409 -0.768200636 0.019266367 -1.75259066 -1.02508783 0.0201743841 -1.63678229 -1.30271292 0.0205671787 -1.41211045 -1.00144148 -0.133215547 -1.63678229 -1.27152514 -0.172392726 -1.41210461 -0.599313378 -0.0758312941 -1.7939409 -0.70431304 -0.209854007 -1.75259066 -0.93933934 -0.280125141 -1.63678205 -1.19160128 -0.355260968 -1.41208947 -0.840438008 -0.415380955 -1.63678217 -0.502359986 -0.251541018 -1.7939409 -0.531079173 -0.405735016 -1.75259089 -0.709231019 -0.533942342 -1.63678336 -0.550100446 -0.631331205 -1.63678586 -0.326105237 -0.387666464 -1.79394102 -0.273845196 -0.538546801 -1.75259149 -0.369192839 -0.705908418 -1.63678992 -0.470211387 -0.875670314 -1.41211629 -0.1723665 -0.755494595 -1.63679552 -0.223108768 -0.938672483 -1.41217899 -0.0961894989 -0.463347197 -1.79394114 0.0306441784 -0.59172821 -1.75259233 0.0334961414 -0.778572679 -1.63680243 0.0357316732 -0.970671117 -1.41226137 0.241301179 -0.772812486 -1.63680995 0.298297524 -0.968029678 -1.41235375 0.153838754 -0.469521761 -1.79394126 0.338189721 -0.556179047 -1.75259328 0.443420053 -0.737525225 -1.63681746 0.555660367 -0.92868793 -1.41244471 0.6313833 -0.671952248 -1.63682425 0.385996938 -0.402744651 -1.79394138 0.600628018 -0.431899667 -1.75259423 0.797106624 -0.577816129 -1.63682985 0.931988358 -0.457523704 -1.63683414 0.562802672 -0.270124435 -1.7939415 0.773026824 -0.23391521 -1.75259471 1.02989686 -0.316009164 -1.63683724 1.31432784 -0.405438662 -1.41265666 1.08556139 -0.159002542 -1.63683879 1.38460481 -0.205302119 -1.41267002 0.654676318 -0.0908685923 -1.7939415 0.825804114 0.00674796104 -1.75259483 1.09801471 0.00617074966 -1.63683939 1.39747131 0.00603210926 -1.41267395 1.06736028 0.171816826 -1.63683879 1.35453665 0.218075037 -1.4126699 0.64740622 0.105826855 -1.7939415 0.753492236 0.248601675 -1.75259471 0.997320771 0.33019805 -1.63683712 1.26233494 0.420254707 -1.41265666 0.891187787 0.473876715 -1.63683414 0.544484258 0.286742926 -1.7939415 0.571926236 0.449828386 -1.75259411 0.754201055 0.596974373 -1.63682985 0.590678096 0.694399357 -1.63682425 0.363644481 0.42224884 -1.79394138 0.31005013 0.578596115 -1.75259328 0.406590104 0.763602257 -1.63681746 0.513246655 0.96067524 -1.41244459 0.20791018 0.802668571 -1.63680995 0.260843158 1.00571847 -1.41235363 0.13243258 0.492386103 -1.79394126 -0.640581846 1.17803621 0.344094157 -0.490246177 1.1872282 0.353352666 -0.439192772 1.23096681 0.351112008 -0.458990455 1.24191427 0.323786139 -0.370171785 1.19403028 0.298956752 -0.335887551 1.24208617 0.303889155 -0.439192772 1.23096681 0.351112008 -0.335887551 1.24208617 0.303889155 0.596686244 1.23778963 0.271125436 0.350289702 1.28984356 0.275347829 0.274458766 1.27247524 0.306923509 0.316800714 1.22761226 0.303851485 0.110513091 1.27070236 0.277917743 0.274458766 1.27247524 0.306923509 0.0837939978 1.21735358 0.273295999 0.110513091 1.27070236 0.277917743 -0.889171481 1.07108164 0.34148705 -0.815745234 1.03880239 0.3617028 -0.656000733 1.07463908 0.359008431 -1.10870695 0.911625862 0.34494698 -0.874841452 0.924281359 0.361937881 -0.673041821 0.936704159 0.359583974 1.11557209 0.975479603 0.243075967 0.88459599 1.14039445 0.247813344 0.813524127 1.10081363 0.269711375 0.87969172 0.979820251 0.265823245 0.597997308 1.12631941 0.283774734 0.606371522 0.979744673 0.283215404 -1.30415499 0.731779337 0.326892734 -1.2521565 0.677714348 0.350048661 -1.10822511 0.729985714 0.357517362 -1.42620635 0.49538064 0.322051883 -1.28520966 0.508719206 0.347175241 -1.10975695 0.521633148 0.357110858 -1.50854278 0.261886358 0.304437518 -1.48333323 0.196493387 0.326111913 -1.41893649 0.259990454 0.334048152 -1.52154338 0.0258661509 0.301416993 -1.48546886 0.0252425671 0.324931502 -1.41233528 0.0238188505 0.333793521 1.49201334 0.523412943 0.235592484 1.33259761 0.781985998 0.23067987 1.28559911 0.722367525 0.249067664 1.34052908 0.538252592 0.248154283 1.13188469 0.777021408 0.253822684 1.15430033 0.551039457 0.253407598 1.67234027 0.00606477261 0.230334878 1.61797297 0.266821384 0.22995913 1.60141742 0.195260525 0.247124314 1.63185394 0.00605416298 0.24723947 1.51957572 0.265908241 0.246717572 1.54786551 0.00603342056 0.24671948 -1.48766565 -0.20674336 0.304437757 -1.46875858 -0.144120932 0.326111436 -1.38346481 -0.431958795 0.32205236 -1.399863 -0.208402276 0.334048629 -1.23677683 -0.655723929 0.326893449 -1.19544935 -0.609067678 0.350048661 -1.24665296 -0.450799465 0.347174525 -1.0274893 -0.828813195 0.344946504 -1.05315864 -0.664275289 0.357517123 -1.07636094 -0.470202923 0.35711062 -0.842249513 -0.691913247 0.361894011 -0.853273153 -0.483171225 0.361894011 -0.809703588 -0.85341692 0.361938357 -0.561462164 -0.878665209 0.35800755 -0.575791001 -0.706327796 0.358172059 -0.590432644 -0.492963791 0.358366132 -0.270698667 -0.721773028 0.345103145 -0.303712487 -0.502927303 0.346564889 -0.264706612 -0.901284575 0.345066905 0.00173413754 -0.917896867 0.260749459 -0.00237846375 -0.734279871 0.25788486 -0.0557391644 -0.510893583 0.260779738 0.389515042 -0.523242593 0.233255029 0.439787269 -0.752064943 0.230230212 0.557135224 -0.756324649 0.289841533 0.527865052 -0.52666378 0.29169929 0.443056226 -0.941646159 0.232789636 0.557938695 -0.94722414 0.289663434 0.716923594 -0.951263666 0.279087424 0.724960446 -0.761736631 0.27875793 0.716156363 -0.530779004 0.279191136 0.968454719 -0.768456817 0.264584899 0.966428638 -0.535406947 0.264585376 0.94098413 -0.950982094 0.265822768 1.19379652 -0.947842658 0.243076444 1.21104395 -0.755344868 0.253822207 1.22018373 -0.534246922 0.253407598 1.3754071 -0.702227712 0.249067664 1.41858709 -0.521816373 0.248154283 1.4296385 -0.760414481 0.230679393 1.58029997 -0.507203102 0.235591769 1.56819332 -0.252806306 0.246718049 1.63986051 -0.182608604 0.247124314 1.67120159 -0.253661633 0.229958892 1.42116487 -0.275704145 0.247896791 1.39958632 0.00601780415 0.247896791 1.19534743 0.00605487823 0.253271461 1.21300638 -0.274661422 0.253271461 0.957662225 -0.272780538 0.264585137 0.944021344 0.00622308254 0.264585614 0.669345498 0.00660836697 0.28110683 0.696114182 -0.270212293 0.280032754 0.469701409 -0.267496109 0.295327783 0.396007895 0.00725483894 0.29996717 0.169131398 0.00803792477 0.246494412 0.291619897 -0.265020609 0.239137053 -0.159242988 -0.257737398 0.266291738 -0.364362359 -0.253826976 0.349334836 -0.283122063 0.0103906393 0.272385955 -0.436048269 0.0115133524 0.352379918 -0.632287621 0.013194561 0.359167933 -0.610495567 -0.248737454 0.358740449 -0.86178124 -0.243046641 0.361894011 -0.868305326 0.0156708956 0.361893773 -1.09850311 0.0186505318 0.356971622 -1.09037137 -0.237426162 0.356971383 -1.2718277 -0.232650995 0.346141458 -1.28165603 0.0214929581 0.346141458 -0.800916553 -0.984284759 0.341486573 -0.739144564 -0.959893465 0.361703277 -0.530721545 -1.09825516 0.343208909 -0.543285608 -1.00483608 0.35770452 -0.303038478 -1.17614675 0.319767594 -0.244177699 -1.17015886 0.344505668 -0.290390491 -1.12495732 0.346956372 -0.0997390747 -1.19112194 0.294695497 -0.244177699 -1.17015886 0.344505668 -0.0875989199 -1.14540195 0.285853982 -0.0997390747 -1.19112194 0.294695497 0.348145604 -1.18001127 0.257263541 0.308967948 -1.22451806 0.267520308 0.423518777 -1.22682047 0.298405528 0.486277938 -1.18820775 0.294050097 0.28827703 -1.24679112 0.247429252 0.449915051 -1.2414403 0.270481229 0.659063935 -1.19569588 0.269243836 0.688644767 -1.09121537 0.280547023 0.865444064 -1.06671286 0.269711614 0.936851144 -1.10511804 0.247812867 0.532674432 -1.09344292 0.291102052 0.402389169 -1.08550572 0.24371469 -0.0407181978 -1.05526423 0.272309899 -0.284589291 -1.03608775 0.346420407 -1.29016304 0.279981852 0.346141696 -1.10557151 0.278500319 0.356971383 -0.874056101 0.277563572 0.361894011 -0.880360484 0.526734114 0.361893773 -0.652526259 0.277433395 0.359540343 -0.668172717 0.528331757 0.359776616 -0.502687693 0.277687311 0.354891896 -0.549240828 0.529575586 0.356392264 -0.398671985 0.27801156 0.277389407 -0.478054404 0.530478239 0.280312896 -0.0449171066 0.536766768 0.25892961 0.0444427729 0.28024292 0.253871083 0.320216298 0.282123089 0.304811358 0.265130162 0.542022228 0.308283925 0.641126752 0.284472466 0.28223145 0.619168639 0.548100948 0.283042789 0.92865169 0.286499023 0.264585376 0.914958596 0.552749872 0.264585614 1.17540205 0.288008928 0.253271461 1.37519801 0.288970232 0.247897267 -0.888088942 0.749002695 0.361894011 -0.67588973 0.752051115 0.359807849 -0.560625196 0.754163504 0.356583953 -0.549101353 0.942655802 0.355973601 -0.478054404 0.530478239 0.280312896 -0.49374485 0.75561285 0.280683875 -0.560625196 0.754163504 0.356583953 -0.549240828 0.529575586 0.356392264 -0.467473626 0.945093393 0.282762885 -0.49374485 0.75561285 0.280683875 -0.0315015316 0.959399462 0.260781169 -0.0627114773 0.765833616 0.25970304 0.252337337 0.774327278 0.308832049 0.269056201 0.970413685 0.307386041 0.610313058 0.783987761 0.283171296 0.905565619 0.791218758 0.264585376 -0.526293516 1.08933544 0.354929566 -0.420274377 1.09328055 0.290434957 0.0267546177 1.11180019 0.2664994 0.302587628 1.12432623 0.304865718 -0.311774492 1.26581573 0.27860105 -0.203469396 1.27676916 0.175628781 -0.155874133 1.30332232 0.145376801 -0.237746835 1.29740405 0.194949985 -0.0989353657 1.2864058 0.102971792 -0.0740851164 1.31568384 0.0951633453 -0.0427474976 1.33924937 0.0725626945 0.0773066282 -1.2635709 0.0995365381 0.0150934458 -1.25296116 0.147022724 0.0923663378 -1.23697257 0.107915044 0.0036842823 -1.22857499 0.176140904 0.0150934458 -1.25296116 0.147022724 0.0773066282 -1.2635709 0.0995365381 0.0036842823 -1.22857499 0.176140904 0.182556033 -1.24230957 0.166087985 0.145177245 -1.26319242 0.140040874 0.227953792 -1.26957273 0.17419827 0.0594525337 -1.2829423 0.0707805157 -0.0740851164 1.31568384 0.0951633453 -0.00098490715 1.31632447 0.1380409 0.00488555431 1.29325247 0.165421844 -0.00098490715 1.31632447 0.1380409 0.00488555431 1.29325247 0.165421844 -0.311774492 1.26581573 0.27860105 -0.335887551 1.24208617 0.303889155 -0.233005643 1.25051451 0.174754739 -0.203469396 1.27676916 0.175628781 -0.370171785 1.19403028 0.298956752 -0.26683259 1.19974041 0.150593877 -0.166584849 1.20493627 0.0532342196 -0.125884175 1.25769067 0.0892717838 -0.233005643 1.25051451 0.174754739 -0.26683259 1.19974041 0.150593877 0.0837939978 1.21735358 0.273295999 0.110513091 1.27070236 0.277917743 -0.0163519382 1.26507545 0.164336085 -0.0628387928 1.21031094 0.141417742 0.139887691 1.2978673 0.252866626 -0.0163519382 1.26507545 0.164336085 -0.0628387928 1.21031094 0.141417742 -0.0557391644 -0.510893583 0.260779738 -0.00237846375 -0.734279871 0.25788486 0.153072238 -0.74083221 0.0433280468 0.0921236277 -0.515232801 0.0458649397 0.00173413754 -0.917896867 0.260749459 0.156670213 -0.926636934 0.0545322895 0.254093051 -0.931694865 -0.0774663687 0.250403047 -0.74460578 -0.0939831734 0.189715266 -0.517868638 -0.0919606686 0.443056226 -0.941646159 0.232789636 0.439787269 -0.752064943 0.230230212 0.343398452 -0.748241901 0.0347812176 0.347260594 -0.936568975 0.0457311869 0.389515042 -0.523242593 0.233255029 0.284359097 -0.520409346 0.0373237133 0.189715266 -0.517868638 -0.0919606686 0.250403047 -0.74460578 -0.0939831734 0.254093051 -0.931694865 -0.0774663687 0.291619897 -0.265020609 0.239137053 0.169589162 -0.263165832 0.0422428846 0.169131398 0.00803792477 0.246494412 0.0274999142 0.00864827633 0.048207283 -0.0733203888 0.0091303587 -0.083466053 0.0713962317 -0.261649609 -0.0880582333 -0.283122063 0.0103906393 0.272385955 -0.159242988 -0.257737398 0.266291738 -0.0269857645 -0.260067105 0.0507421494 -0.170922041 0.00966501236 0.0562975407 0.0713962317 -0.261649609 -0.0880582333 -0.0733203888 0.0091303587 -0.083466053 -0.0875989199 -1.14540195 0.285853982 -0.0997390747 -1.19112194 0.294695497 0.0122474432 -1.20342457 0.167746902 0.0448009968 -1.15728116 0.134919047 -0.113861799 -1.21354985 0.273235917 0.0122474432 -1.20342457 0.167746902 0.110086083 -1.21124828 0.0843929052 0.142913461 -1.16494823 0.0371433496 0.0448009968 -1.15728116 0.134919047 0.28827703 -1.24679112 0.247429252 0.308967948 -1.22451806 0.267520308 0.207717538 -1.2187674 0.15689671 0.182556033 -1.24230957 0.166087985 0.348145604 -1.18001127 0.257263541 0.239990592 -1.17234659 0.124616265 0.207717538 -1.2187674 0.15689671 0.239990592 -1.17234659 0.124616265 0.402389169 -1.08550572 0.24371469 0.299166322 -1.07867908 0.0814871788 0.204025149 -1.07238293 -0.025473237 0.142913461 -1.16494823 0.0371433496 -0.0407181978 -1.05526423 0.272309899 0.106182218 -1.06585813 0.0909934044 0.142913461 -1.16494823 0.0371433496 0.204025149 -1.07238293 -0.025473237 -0.398671985 0.27801156 0.277389407 -0.307593942 0.278395653 0.061060071 -0.402062178 0.531582117 0.0639301538 -0.21434176 0.278829098 -0.0793105364 -0.313131571 0.532838583 -0.0766935349 0.0444427729 0.28024292 0.253871083 -0.114505649 0.279323339 0.0538827181 -0.0449171066 0.536766768 0.25892961 -0.215258241 0.534181595 0.0575948954 -0.313131571 0.532838583 -0.0766935349 -0.21434176 0.278829098 -0.0793105364 -0.467473626 0.945093393 0.282762885 -0.41993165 0.757414579 0.0643099546 -0.386574268 0.947794437 0.0756393671 -0.331906438 0.759468079 -0.0763283968 -0.296537519 0.950705767 -0.0590679646 -0.0627114773 0.765833616 0.25970304 -0.234651923 0.761636019 0.058137536 -0.0315015316 0.959399462 0.260781169 -0.198600292 0.953757048 0.0689848661 -0.296537519 0.950705767 -0.0590679646 -0.331906438 0.759468079 -0.0763283968 -0.420274377 1.09328055 0.290434957 -0.32683754 1.09712529 0.111024737 -0.232466102 1.10097075 -0.00601911545 -0.166584849 1.20493627 0.0532342196 0.0267546177 1.11180019 0.2664994 -0.132504582 1.10497618 0.10325563 -0.166584849 1.20493627 0.0532342196 -0.232466102 1.10097075 -0.00601911545 0.0189480782 0.0112013817 -1.84775901 -0.0189230442 1.3591814 -0.10161376 -0.372411966 1.31693506 -0.0768511295 -0.703698874 1.23816657 -0.0481407642 -1.00342762 1.12498522 -0.0393167734 -1.25762749 0.974547863 -0.0432058573 -1.25762749 0.974547863 -0.0432058573 -1.45535672 0.783153296 -0.0506643057 -1.59494042 0.554250002 -0.0590754747 -1.67433488 0.297127008 -0.0655424595 -1.69318664 0.0274941921 -0.0679955482 -1.64829135 -0.237361312 -0.0655425787 -1.54074907 -0.482305884 -0.0590747595 -1.37363243 -0.697178125 -0.0506644249 -1.15614247 -0.878540754 -0.0432060957 -1.15614247 -0.878540754 -0.0432060957 -0.897351503 -1.02676463 -0.0393167734 -0.606228352 -1.14620757 -0.0482019186 -0.288499475 -1.23808599 -0.0772747993 0.0452702045 -1.29478574 -0.102400899 0.382577538 -1.30338109 -0.100194335 0.717059731 -1.26094151 -0.0910092592 1.04076445 -1.16631651 -0.0936985016 1.3366884 -1.01759386 -0.0996187925 1.3366884 -1.01759386 -0.0996187925 1.581586 -0.815825582 -0.10195148 1.75593984 -0.569752574 -0.101865649 1.84529436 -0.290738821 -0.100933313 1.85029304 0.00609636307 -0.100449324 1.78032863 0.304280996 -0.100933313 1.65183723 0.587119579 -0.101865649 1.47501934 0.838897705 -0.101951599 1.25537694 1.0475862 -0.0996192694 1.25537694 1.0475862 -0.0996192694 0.992195725 1.20403266 -0.0936982632 0.686588407 1.30661011 -0.0908732414 0.342951655 1.35703754 -0.099624157 </float_array>
          <technique_common>
            <accessor count="739" offset="0" source="#meshesQ0S-positions-array" stride="3">
              <param name="X" type="float" />
              <param name="Y" type="float" />
              <param name="Z" type="float" />
            </accessor>
          </technique_common>
        </source>
        <source id="meshesQ0S-normals" name="meshesQ0S-normals">
          <float_array id="meshesQ0S-normals-array" count="2217"> 0.462949574 0.586591244 0.664521277 0.0484354235 0.941018403 0.334870845 -0.180763692 0.968847632 0.169289336 -0.204981118 0.927880645 0.31148079 -0.0867804885 0.957532167 0.274957091 -0.176104084 0.974720299 0.137505576 -0.295187771 0.942822933 0.154755548 -0.305085957 0.920141757 0.245482877 -0.189841643 0.621726513 0.759879172 -0.442642093 0.825581253 0.349976808 -0.314622968 0.571622312 0.757799745 -0.437395036 0.875324428 0.206137642 -0.602381945 0.753184676 0.264289469 -0.571741939 0.684588134 0.452161789 -0.320193738 0.380063176 0.867771924 -0.320193738 0.380063176 0.867771924 -0.571741939 0.684588134 0.452161789 -0.714743018 0.527574599 0.459137738 -0.505742133 0.35012877 0.788438141 -0.602381945 0.753184676 0.264289469 -0.755599141 0.568961978 0.324580282 -0.856292963 0.360622644 0.369748235 -0.803469181 0.329669654 0.495737225 -0.510370553 0.171699882 0.842639387 -0.873487711 0.156755492 0.460919619 -0.713532686 0.116080463 0.69093883 -0.904490173 0.154615909 0.397481501 -0.915255547 -0.0435407422 0.400514036 -0.887887418 -0.0408517011 0.458243519 -0.734910488 -0.0335253514 0.677334964 -0.861580253 -0.244081065 0.445088923 -0.709679544 -0.187274396 0.679178357 -0.889257133 -0.247455239 0.384691954 -0.820919573 -0.458380699 0.340556026 -0.780001998 -0.422898591 0.461252272 -0.510348976 -0.236586511 0.826783419 -0.685505927 -0.604654193 0.405555159 -0.510112882 -0.422989875 0.748908877 -0.710331738 -0.644786239 0.282275766 -0.57503581 -0.78755033 0.221581683 -0.558980525 -0.73289454 0.387822568 -0.331130266 -0.430179238 0.839820564 -0.331130266 -0.430179238 0.839820564 -0.558980525 -0.73289454 0.387822568 -0.447786123 -0.843876243 0.295568407 -0.333653271 -0.625647604 0.705152929 -0.57503581 -0.78755033 0.221581683 -0.444281697 -0.879269481 0.171752825 -0.326000184 -0.935127735 0.138780877 -0.327582091 -0.913848042 0.23994112 -0.179968268 -0.624548435 0.759967566 -0.220859274 -0.959245205 0.176266491 -0.204478994 -0.889350712 0.408954591 -0.221226215 -0.966783702 0.128016829 -0.0641103163 -0.969806731 0.235297039 -0.0820875466 -0.967687368 0.238417387 0.131894603 -0.867466092 0.479694277 -0.437339157 -0.583082497 0.684652746 -0.0991498977 -0.95337224 0.285045058 0.0848442167 -0.978940189 0.18568179 0.124559402 -0.918320298 0.375729829 0.0684072301 -0.98795259 0.138817474 0.215034395 -0.962733448 0.164026305 0.234209105 -0.93287921 0.273646891 0.180486694 -0.614338696 0.768122792 0.383628786 -0.842855036 0.377391458 0.286393315 -0.567516446 0.771948218 0.375070542 -0.900377035 0.220552206 0.538914502 -0.793260634 0.283388048 0.5040766 -0.711872816 0.489023507 0.277140915 -0.373324931 0.885336876 0.277140915 -0.373324931 0.885336876 0.5040766 -0.711872816 0.489023507 0.644574463 -0.570211589 0.50929606 0.41692549 -0.357735962 0.835582435 0.538914502 -0.793260634 0.283388048 0.696997643 -0.623315156 0.354503393 0.81860137 -0.397521704 0.414570212 0.741065979 -0.361089647 0.566070259 0.411782146 -0.179583341 0.893412292 0.834365904 -0.147438377 0.531126797 0.616239727 -0.0982712135 0.781403482 0.882272482 -0.141438663 0.448988229 0.889763951 0.092988424 0.446848124 0.84844178 0.0862489119 0.522214413 0.634425163 0.0657577589 0.770182252 0.816300452 0.281067342 0.504633307 0.613452137 0.205615774 0.762494981 0.859012187 0.284781814 0.425437868 0.804192662 0.448568016 0.389949888 0.736536622 0.410197079 0.537821651 0.411687225 0.212928802 0.886101067 0.666324079 0.554965317 0.498021841 0.434809953 0.35314101 0.828391135 0.719655931 0.601344347 0.347102791 0.590148091 0.751667082 0.294485778 0.547283828 0.672802746 0.497812092 0.301619709 0.348510236 0.887449265 0.301619709 0.348510236 0.887449265 0.547283828 0.672802746 0.497812092 0.420990884 0.814965367 0.398243815 0.304884613 0.547051966 0.77960217 0.590148091 0.751667082 0.294485778 0.420337468 0.875681698 0.237693176 0.237046897 0.95390743 0.184036925 0.253554225 0.91296941 0.319683045 0.170848593 0.587751508 0.790796518 0.100696526 0.973443985 0.205589592 0.12240836 0.868014812 0.48121351 0.0816826224 0.983971417 0.158519581 -0.0435404591 0.969699502 0.240389571 -0.151562631 0.867777765 0.473276556 -0.0545071103 0.998205006 -0.0248160046 -0.0538669862 0.986663043 -0.153605014 -0.162259147 0.975288689 -0.149946824 -0.165539742 0.985991359 -0.0204395596 -0.0477162786 0.955711067 -0.290412873 -0.156129792 0.945056796 -0.2872127 -0.269286454 0.91478467 -0.301087976 -0.27402389 0.949893892 -0.150374711 -0.28259021 0.959227145 -0.00510540744 -0.415036201 0.896159708 -0.156980574 -0.422255099 0.906393826 0.0122914407 -0.399635881 0.857748032 -0.323356569 -0.552151024 0.756950736 -0.349506706 -0.580863059 0.797451377 -0.163307816 -0.598606348 0.80011332 0.0385921299 -0.598606348 0.80011332 0.0385921299 -0.580863059 0.797451377 -0.163307816 -0.75419867 0.636902094 -0.15981327 -0.770890653 0.633242905 0.0687833056 -0.552151024 0.756950736 -0.349506706 -0.703418076 0.606135964 -0.371217281 -0.828706622 0.411525577 -0.37933138 -0.88977468 0.430777133 -0.150771692 -0.902777731 0.418274611 0.10019473 -0.970295489 0.197571218 -0.139615133 -0.974332631 0.188167512 0.123567626 -0.904931664 0.193328038 -0.379108071 -0.926691234 -0.0404394567 -0.373641461 -0.990312457 -0.0472319163 -0.130577326 -0.990490317 -0.0482903384 0.128829479 -0.946763039 -0.295129836 -0.128600955 -0.948908389 -0.291256011 0.12142022 -0.889922798 -0.277867377 -0.361700416 -0.798375487 -0.496018738 -0.341411889 -0.840833068 -0.526087582 -0.12740317 -0.850276649 -0.517280877 0.0972123966 -0.699359715 -0.703752697 -0.125013083 -0.707578659 -0.703509092 0.0663885698 -0.669929683 -0.672331929 -0.314903259 -0.535964012 -0.793467879 -0.288360029 -0.550172508 -0.826113999 -0.12184459 -0.562277615 -0.825998127 0.0396365412 -0.562277615 -0.825998127 0.0396365412 -0.550172508 -0.826113999 -0.12184459 -0.422655284 -0.898295224 -0.120117649 -0.428601146 -0.903336644 0.0168518908 -0.535964012 -0.793467879 -0.288360029 -0.410928845 -0.872038484 -0.265869111 -0.300584078 -0.918557048 -0.256714076 -0.30967769 -0.943100333 -0.12108539 -0.318889976 -0.947791696 0.000274147722 -0.205693841 -0.969999492 -0.129579827 -0.213558868 -0.976776838 -0.0173128899 -0.193667829 -0.947194338 -0.25556919 -0.08065366 -0.960242927 -0.267261177 -0.0925673321 -0.985645711 -0.141187489 -0.0957699865 -0.994987667 -0.0287695695 0.0397139192 -0.987707853 -0.151182562 0.0383176021 -0.998876572 -0.0278842002 0.0453903228 -0.957411706 -0.285135835 0.187389016 -0.932382703 -0.309108168 0.185449064 -0.969502509 -0.160229906 0.194676265 -0.980802655 -0.0112904748 0.351415008 -0.920842409 -0.16898793 0.35757184 -0.933859229 0.0070348666 0.339284897 -0.878409505 -0.336574644 0.500902534 -0.783290386 -0.368175179 0.525094151 -0.83229059 -0.177675098 0.540291071 -0.840861201 0.0322205536 0.540291071 -0.840861201 0.0322205536 0.525094151 -0.83229059 -0.177675098 0.70946753 -0.68042469 -0.183515802 0.723133802 -0.687925756 0.061933659 0.500902534 -0.783290386 -0.368175179 0.661001682 -0.634801686 -0.400129467 0.802247047 -0.42133826 -0.422934741 0.870861769 -0.455198228 -0.185457766 0.886461079 -0.453076124 0.0943874344 0.968768775 -0.172437817 -0.178192183 0.9787305 -0.167958394 0.117798768 0.887130141 -0.165115118 -0.430972397 0.903213501 0.0875616968 -0.420164555 0.980569482 0.102428369 -0.167308226 0.986874163 0.104882993 0.122796476 0.931493044 0.325577587 -0.162234798 0.937990129 0.326912642 0.115337878 0.86430043 0.300965518 -0.402994722 0.788925469 0.473620147 -0.391510904 0.847200215 0.505737364 -0.162732199 0.859546423 0.502347291 0.0939531699 0.732276201 0.659068942 -0.171463475 0.748193085 0.66016978 0.0662041679 0.68131882 0.624684036 -0.381542444 0.542675436 0.754177094 -0.369757205 0.57774204 0.796171308 -0.179792553 0.596633792 0.801670074 0.0367870107 0.596633792 0.801670074 0.0367870107 0.57774204 0.796171308 -0.179792553 0.399242163 0.899358392 -0.178214297 0.409926981 0.912071109 0.00928425975 0.542675436 0.754177094 -0.369757205 0.378991604 0.85568732 -0.352369964 0.217198148 0.919726908 -0.326997668 0.219609872 0.960431814 -0.17129609 0.228022203 0.97363019 -0.00708694803 0.0702230707 0.984407604 -0.161277592 0.0700988695 0.997341096 -0.0199210439 0.0729575232 0.949986458 -0.303649336 -0.038591221 0.897249818 -0.439833522 -0.147188842 0.88524127 -0.441229403 -0.0276829898 0.804221928 -0.593684018 -0.132318094 0.795051992 -0.591932654 -0.235892817 0.759390771 -0.606366456 -0.25794968 0.852214217 -0.455184579 -0.37746489 0.7892766 -0.484316796 -0.344646871 0.695604086 -0.630359828 -0.451244742 0.601884067 -0.658873081 -0.5075261 0.68821013 -0.518443942 -0.37746489 0.7892766 -0.484316796 -0.344646871 0.695604086 -0.630359828 -0.5075261 0.68821013 -0.518443942 -0.5075261 0.68821013 -0.518443942 -0.633671343 0.548126817 -0.545910001 -0.550698519 0.475299984 -0.686164021 -0.633671343 0.548126817 -0.545910001 -0.631582022 0.324789554 -0.703999996 -0.735656142 0.373854697 -0.564838707 -0.550698519 0.475299984 -0.686164021 -0.801339746 0.177209064 -0.571359515 -0.682944417 0.156999826 -0.713398993 -0.700790644 -0.0222248379 -0.713020742 -0.822280526 -0.0309697632 -0.568239093 -0.795901656 -0.243647873 -0.554234982 -0.682105303 -0.201713488 -0.702882707 -0.629889548 -0.373764962 -0.680836916 -0.724533617 -0.441350341 -0.529396772 -0.621327639 -0.608338714 -0.493838131 -0.551864564 -0.520460904 -0.651587307 -0.456774265 -0.639614403 -0.618264318 -0.506467402 -0.731342673 -0.456758857 -0.621327639 -0.608338714 -0.493838131 -0.551864564 -0.520460904 -0.651587307 -0.506467402 -0.731342673 -0.456758857 -0.506467402 -0.731342673 -0.456758857 -0.3917723 -0.814499021 -0.427908838 -0.357890666 -0.724803984 -0.588705003 -0.3917723 -0.814499021 -0.427908838 -0.255826771 -0.779772282 -0.571408749 -0.28354761 -0.867773354 -0.408130229 -0.357890666 -0.724803984 -0.588705003 -0.176926464 -0.896573544 -0.40602082 -0.153101623 -0.811639309 -0.563739061 -0.0478503332 -0.819405138 -0.571214318 -0.0646892041 -0.907945573 -0.414065659 0.0555646792 -0.89868629 -0.435058206 0.0651629716 -0.806371927 -0.587807834 0.179457068 -0.76878643 -0.613809884 0.186861262 -0.866212249 -0.463421285 0.323092937 -0.804341733 -0.498643547 0.298819393 -0.702501953 -0.645908594 0.411640942 -0.606531739 -0.680199325 0.462527812 -0.704612255 -0.53813529 0.323092937 -0.804341733 -0.498643547 0.298819393 -0.702501953 -0.645908594 0.462527812 -0.704612255 -0.53813529 0.462527812 -0.704612255 -0.53813529 0.59403497 -0.561035991 -0.576507747 0.516359925 -0.47304824 -0.713861287 0.59403497 -0.561035991 -0.576507747 0.59994781 -0.312469363 -0.736495435 0.703560412 -0.368920565 -0.607371747 0.516359925 -0.47304824 -0.713861287 0.772863865 -0.149275377 -0.616764426 0.651128769 -0.131907776 -0.747416735 0.668164313 0.0484329686 -0.742435694 0.789542675 0.0670959726 -0.610016823 0.762431979 0.259050816 -0.592950463 0.650751233 0.212012768 -0.729090869 0.602710903 0.358458936 -0.712914348 0.702259541 0.422022194 -0.573348761 0.611213207 0.562880933 -0.556402445 0.529394388 0.487102538 -0.694602668 0.432486683 0.598705709 -0.674171269 0.491758615 0.685604393 -0.536768198 0.611213207 0.562880933 -0.556402445 0.529394388 0.487102538 -0.694602668 0.491758615 0.685604393 -0.536768198 0.491758615 0.685604393 -0.536768198 0.353323519 0.784247816 -0.510017574 0.319275975 0.687996686 -0.651708126 0.353323519 0.784247816 -0.510017574 0.198194981 0.75395298 -0.626317561 0.211364329 0.85035938 -0.481886029 0.319275975 0.687996686 -0.651708126 0.0784811676 0.886372805 -0.456271827 0.0827180296 0.791632712 -0.605372131 -0.0276829898 0.804221928 -0.593684018 -0.0134855378 0.640051186 -0.768213868 -0.0991668329 0.621283889 -0.777285278 -0.132318094 0.795051992 -0.591932654 -0.00499057397 0.386983186 -0.922073305 -0.0390154645 0.208671078 -0.977207363 -0.1106451 0.365000099 -0.92440933 -0.190350965 0.601055861 -0.776207685 -0.235892817 0.759390771 -0.606366456 -0.269663721 0.539323032 -0.797754526 -0.0972139537 0.163572282 -0.981729925 -0.213788271 0.284680098 -0.934479475 -0.3566989 0.466115445 -0.80963105 -0.421018481 0.365107238 -0.830325305 -0.129894271 0.0980437845 -0.986668646 -0.288722992 0.153132483 -0.945087075 -0.482875943 0.2515755 -0.83877337 -0.631582022 0.324789554 -0.703999996 -0.51319778 0.121630073 -0.849608302 -0.682944417 0.156999826 -0.713398993 -0.143743411 0.0317422487 -0.989105821 -0.316729069 -0.00666907011 -0.948492646 -0.531886637 -0.0126904082 -0.846720517 -0.700790644 -0.0222248379 -0.713020742 -0.514003873 -0.149022922 -0.844743907 -0.682105303 -0.201713488 -0.702882707 -0.145805731 -0.033532422 -0.988744795 -0.291181624 -0.166602761 -0.942049325 -0.485610694 -0.277584255 -0.828932583 -0.629889548 -0.373764962 -0.680836916 -0.425415963 -0.392416775 -0.815493941 -0.134917453 -0.104268 -0.985355496 -0.218537346 -0.297921151 -0.929238617 -0.365330189 -0.492035717 -0.790211856 -0.27965045 -0.561381161 -0.778875351 -0.101893477 -0.17340827 -0.979564905 -0.118957654 -0.375135988 -0.919305325 -0.203870073 -0.620104253 -0.757566929 -0.255826771 -0.779772282 -0.571408749 -0.115132488 -0.636683226 -0.762482166 -0.153101623 -0.811639309 -0.563739061 -0.0412715822 -0.216984838 -0.975302219 -0.0150355389 -0.395002842 -0.918556869 -0.0276354514 -0.6548509 -0.7552526 -0.0478503332 -0.819405138 -0.571214318 0.0587062463 -0.629693091 -0.774622619 0.0651629716 -0.806371927 -0.587807834 0.0324157737 -0.211078972 -0.976931393 0.0932950079 -0.365504712 -0.926122248 0.155270681 -0.602572262 -0.782813966 0.179457068 -0.76878643 -0.613809884 0.236983046 -0.538735628 -0.808457255 0.0905290321 -0.160974205 -0.98279798 0.197720215 -0.279650509 -0.939522445 0.32753244 -0.460836917 -0.824834466 0.394202143 -0.356229872 -0.847174704 0.123112991 -0.0943650529 -0.987895966 0.273901701 -0.143595368 -0.950977623 0.456673145 -0.235929698 -0.857780278 0.59994781 -0.312469363 -0.736495435 0.488170326 -0.103262939 -0.866617858 0.651128769 -0.131907776 -0.747416735 0.138294309 -0.0285540968 -0.989979446 0.302097082 0.0141587723 -0.953172088 0.506033063 0.0278641917 -0.862063944 0.668164313 0.0484329686 -0.742435694 0.488969237 0.154627576 -0.858486772 0.650751233 0.212012768 -0.729090869 0.141669318 0.0347970761 -0.989302337 0.27707091 0.162702367 -0.946973979 0.462576658 0.27062434 -0.844266176 0.602710903 0.358458936 -0.712914348 0.40301314 0.371181011 -0.83654362 0.130036712 0.0997122973 -0.98648262 0.204307184 0.283537865 -0.936944425 0.339359879 0.463782549 -0.818376839 0.250578374 0.532071114 -0.808771253 0.0947773084 0.163916871 -0.981910646 0.100809455 0.360809326 -0.927175343 0.167067647 0.592188537 -0.788290083 0.198194981 0.75395298 -0.626317561 0.0715498552 0.616930008 -0.783758879 0.0827180296 0.791632712 -0.605372131 0.033456631 0.208277002 -0.977497578 -0.189841643 0.621726513 0.759879172 0.14172712 -0.0344044603 0.989307821 0.170008466 0.36683023 0.914621711 -0.204981118 0.927880645 0.31148079 0.595124424 -0.440489292 0.672157824 0.577254415 -0.0242979173 0.816202879 0.170008466 0.36683023 0.914621711 0.577254415 -0.0242979173 0.816202879 0.170848593 0.587751508 0.790796518 0.12240836 0.868014812 0.48121351 -0.0425958522 0.437664747 0.898128808 0.0284639671 -0.00605418393 0.999576569 -0.366308272 0.468224585 0.804104447 -0.0425958522 0.437664747 0.898128808 -0.424883217 0.13959679 0.894419968 -0.366308272 0.468224585 0.804104447 -0.314622968 0.571622312 0.757799745 -0.0695674643 0.14080599 0.987590015 0.0105367051 0.0747479945 0.997146785 -0.320193738 0.380063176 0.867771924 -0.0365123115 0.01378386 0.999238133 0.0207870658 0.000606913993 0.999783754 0.301619709 0.348510236 0.887449265 0.304884613 0.547051966 0.77960217 0.116623022 0.122677021 0.985570669 0.081791237 0.00942991488 0.996604979 0.07150428 0.0590350777 0.995691776 0.0675609857 0.000972917594 0.997714698 -0.505742133 0.35012877 0.788438141 -0.168425471 0.0773128346 0.982677758 -0.0445965454 0.0364876539 0.99833858 -0.510370553 0.171699882 0.842639387 -0.119754553 0.00302425306 0.992798984 -0.0382355377 -0.00215610047 0.999266505 -0.713532686 0.116080463 0.69093883 -0.380005866 0.0229341667 0.924699783 -0.124925084 0.0260171369 0.991825104 -0.734910488 -0.0335253514 0.677334964 -0.349563777 -0.0154416282 0.93678534 -0.107136376 -0.00429369276 0.994235098 0.411687225 0.212928802 0.886101067 0.434809953 0.35314101 0.828391135 0.114174232 0.0763609037 0.990521789 0.0576892234 0.0100893062 0.998283684 0.0467600375 0.0327309333 0.998369813 0.0376958176 0.0025152117 0.999286175 0.634425163 0.0657577589 0.770182252 0.613452137 0.205615774 0.762494981 0.240270346 0.0608387031 0.968797624 0.200431556 0.0210596826 0.979481339 0.0184867829 0.0273643527 0.999454618 0.000930849812 3.91689719e-05 0.999999583 -0.709679544 -0.187274396 0.679178357 -0.384790212 -0.058561895 0.921144485 -0.510348976 -0.236586511 0.826783419 -0.130311549 -0.0394900776 0.990686357 -0.510112882 -0.422989875 0.748908877 -0.182410583 -0.109841868 0.977067649 -0.125846937 -0.0178142227 0.991889775 -0.331130266 -0.430179238 0.839820564 -0.0506935678 -0.0472644195 0.99759531 -0.039787624 -0.00160605262 0.999206901 -0.0160142668 -0.0123501504 0.999795496 -0.00412196247 -0.000190989274 0.999991536 -0.0392033793 -0.0218023434 0.998993397 0.0302181579 0.00258581806 0.999539971 0.0283800475 0.00121358514 0.999596536 0.0271737222 0.000388461835 0.99963069 0.184801325 0.0186245721 0.982599497 0.190687969 0.0298059136 0.981198132 0.181171387 -0.00540200481 0.983436704 0.595520079 -0.0390510969 0.802390814 0.602122366 0.0809574574 0.794288754 0.606115997 0.187856764 0.772873402 -0.644998848 -0.196077839 0.738600016 -0.701017499 -0.0828920156 0.708310246 -0.184299514 -0.0210719649 0.98264426 -0.159625992 -0.0376954079 0.986457586 -0.66314441 0.115595698 0.73951143 -0.180554032 0.0190551467 0.983380497 0.0628958941 -0.001960336 0.998018205 0.0618982054 -0.000204028227 0.998082459 0.0623941049 0.000986022991 0.998051107 0.0589311868 -0.00823146105 0.998228133 0.05108786 0.00106801838 0.998693585 0.0765684694 -0.0115672136 0.996997237 0.277140915 -0.373324931 0.885336876 0.043256294 -0.0323149897 0.998541236 0.0353294834 0.000588985626 0.999375582 0.106746569 -0.0735512003 0.991562068 0.0541688688 -0.00416642055 0.998523176 0.41692549 -0.357735962 0.835582435 0.411782146 -0.179583341 0.893412292 0.0177452452 -0.0252769142 0.999523044 0.241642624 -0.0144474115 0.970257759 0.616239727 -0.0982712135 0.781403482 0.0247429721 -0.0068347468 0.999670565 0.0170960277 0.00138838135 0.999852896 0.0356337763 0.00231764722 0.99936223 0.0349477381 0.0018388771 0.999387503 0.0516857393 0.00203209277 0.998661339 0.0524959527 0.0027214603 0.99861747 0.0644843206 0.00238239882 0.997915924 0.0631752536 0.00193352194 0.998000622 -0.117688283 -0.0615007468 0.991144359 -0.0807041898 -0.0390432999 0.99597311 -0.526736677 -0.260364592 0.809171736 -0.583685517 -0.260251045 0.769142747 0.623046696 0.255149096 0.739399612 0.215318054 0.0633324459 0.974488199 0.671466589 0.277045339 0.687298059 0.253420144 0.0555147119 0.965762079 0.023171097 -0.000213664011 0.999731541 0.0253836606 0.000517172215 0.999677718 -0.00453939941 -0.000382086728 0.999989688 -0.00493400451 -0.000116985218 0.999987841 -0.0402715318 -0.0012683511 0.999188006 -0.0407737382 -0.00158862968 0.999167144 -0.0884655863 -0.0156625938 0.995956123 -0.0766397119 -0.00274534547 0.997055113 -0.333653271 -0.625647604 0.705152929 -0.0818175673 -0.176640838 0.980868995 -0.179968268 -0.624548435 0.759967566 0.0173310246 -0.0781049505 0.996794522 -0.204478994 -0.889350712 0.408954591 0.107795797 -0.426461458 0.898059428 0.0954233557 -0.00343833538 0.995430946 0.458928853 -0.385277689 0.800590694 0.107795797 -0.426461458 0.898059428 0.537161946 -0.0467473976 0.842182815 0.458928853 -0.385277689 0.800590694 -0.451892614 0.48619166 0.747937679 -0.477857798 0.0787960663 0.874896049 -0.0985135958 -0.330215275 0.938750744 -0.0180370305 0.0431894884 0.998904109 -0.437339157 -0.583082497 0.684652746 0.124559402 -0.918320298 0.375729829 0.180486694 -0.614338696 0.768122792 0.0701833144 -0.0680232272 0.995212138 0.111077502 -0.129879341 0.985288441 0.286393315 -0.567516446 0.771948218 -0.103948288 0.0548138618 0.993071139 -0.564034164 0.323779047 0.759626567 0.557249129 -0.140168503 0.818429172 0.153599456 -0.0159796346 0.988004029 -0.0852395222 0.00690010842 0.996336699 -0.0399869457 -0.00117574574 0.999199569 -0.00523359282 -0.000376122131 0.999986231 -0.00538254343 -0.000161146207 0.999985516 0.0207702201 0.000264526316 0.999784291 0.0193632841 0.0002087709 0.999812484 0.319265872 0.0915248021 0.943235219 0.395859748 0.0421781726 0.917341948 0.751630366 0.271398693 0.601161122 0.831970394 0.140893072 0.536632478 -0.508500993 -0.122083269 0.852362871 -0.500612855 -0.222557589 0.836573303 -0.0611386672 -0.0410195515 0.997286022 -0.0486099161 -0.0149647957 0.998705804 0.0657308921 0.00252253748 0.997834206 0.0665995628 0.00222996925 0.997777283 0.0535140708 0.00276767649 0.99856329 0.0544819348 0.00247285538 0.998511732 0.0363051929 0.00247976324 0.999337733 0.0261298846 0.0112526938 0.999595284 -0.0146050984 0.00851773098 0.999857068 0.0187395494 0.000715797185 0.999824226 0.401948035 -0.00953083765 0.915612936 0.362074852 -0.0332719386 0.931555152 0.831970394 0.140893072 0.536632478 0.861706316 -0.0331051275 0.506326258 0.401948035 -0.00953083765 0.915612936 0.395859748 0.0421781726 0.917341948 0.792994738 -0.182807833 0.581154644 0.861706316 -0.0331051275 0.506326258 -0.488970876 0.108823381 0.865485489 -0.507518053 0.0183175616 0.8614465 -0.0470807664 0.00287994882 0.998886943 -0.0464053079 0.019778898 0.998726964 0.0671467856 0.00155185722 0.997741878 0.062960647 0.00978352875 0.997968137 0.256181538 -0.0664651692 0.964340985 0.688481152 -0.326007515 0.647852421 -0.453217268 0.170186043 0.875003457 -0.0243684873 0.0205389168 0.999492049 0.462949574 0.586591244 0.664521277 0.581887484 -0.507266939 0.63567853 0.547276795 0.0160137732 0.836798549 0.0484354235 0.941018403 0.334870845 -0.000390225527 -0.05309809 0.998589277 0.0983195007 0.429998666 0.897459984 -0.0867804885 0.957532167 0.274957091 -0.0579250753 -0.648327529 0.759154916 0.285229921 -0.778358996 0.559286416 0.0915223435 0.16412589 0.98218447 0.581701219 -0.283544928 0.762381792 0.285229921 -0.778358996 0.559286416 -0.0579250753 -0.648327529 0.759154916 0.581701219 -0.283544928 0.762381792 -0.525084853 0.393108875 0.754818797 -0.458795011 -0.446772426 0.768050611 -0.0991498977 -0.95337224 0.285045058 -0.0641103163 -0.969806731 0.235297039 0.0983195007 0.429998666 0.897459984 -0.316693008 0.778576851 0.541778207 -0.476603776 0.508058667 0.717443526 -0.316693008 0.778576851 0.541778207 -0.476603776 0.508058667 0.717443526 0.462949574 0.586591244 0.664521277 0.577254415 -0.0242979173 0.816202879 0.573787987 -0.628096998 0.525605917 0.581887484 -0.507266939 0.63567853 0.595124424 -0.440489292 0.672157824 0.621433973 -0.60160774 0.501884341 -0.0795449689 -0.417107701 0.905369401 -0.0361864194 -0.51017648 0.859308124 0.573787987 -0.628096998 0.525605917 0.621433973 -0.60160774 0.501884341 -0.424883217 0.13959679 0.894419968 -0.366308272 0.468224585 0.804104447 -0.580033243 0.302685201 0.756269276 -0.649837673 0.204299018 0.732101738 -0.151562631 0.867777765 0.473276556 -0.580033243 0.302685201 0.756269276 -0.649837673 0.204299018 0.732101738 0.606115997 0.187856764 0.772873402 0.602122366 0.0809574574 0.794288754 0.806781352 0.128145352 0.576786637 0.789416373 0.281080723 0.54572475 0.595520079 -0.0390510969 0.802390814 0.800915182 -0.0404844508 0.597407758 -0.0539230853 0.185617566 0.981141388 -0.057892967 0.0193098336 0.998136044 -0.0292962827 -0.0355424061 0.998938739 -0.66314441 0.115595698 0.73951143 -0.701017499 -0.0828920156 0.708310246 -0.849264264 -0.0997156873 0.518465996 -0.82701081 0.202700615 0.524371564 -0.644998848 -0.196077839 0.738600016 -0.812156558 -0.291561395 0.505365133 -0.0292962827 -0.0355424061 0.998938739 -0.057892967 0.0193098336 0.998136044 -0.0539230853 0.185617566 0.981141388 -0.583685517 -0.260251045 0.769142747 -0.768272698 -0.369081914 0.523006499 -0.526736677 -0.260364592 0.809171736 -0.73810178 -0.398221761 0.544633031 0.0259585977 -0.00523030479 0.999649346 0.00553071825 -0.02207743 0.999741018 0.671466589 0.277045339 0.687298059 0.623046696 0.255149096 0.739399612 0.778441846 0.365654051 0.510221124 0.784706295 0.39971742 0.473774344 0.00553071825 -0.02207743 0.999741018 0.0259585977 -0.00523030479 0.999649346 0.537161946 -0.0467473976 0.842182815 0.458928853 -0.385277689 0.800590694 0.683497906 -0.00143909082 0.729951143 0.722112238 -0.0865190029 0.686344266 0.131894603 -0.867466092 0.479694277 0.683497906 -0.00143909082 0.729951143 0.176301256 0.623298526 0.761851013 0.189147174 0.473522037 0.860232651 0.722112238 -0.0865190029 0.686344266 -0.437339157 -0.583082497 0.684652746 -0.477857798 0.0787960663 0.874896049 -0.455598712 0.684444547 0.569179773 -0.525084853 0.393108875 0.754818797 -0.451892614 0.48619166 0.747937679 -0.522232473 0.655465841 0.54556191 -0.455598712 0.684444547 0.569179773 -0.522232473 0.655465841 0.54556191 -0.564034164 0.323779047 0.759626567 -0.678741992 0.49920249 0.538615167 0.0839893594 0.415441394 0.905734122 0.189147174 0.473522037 0.860232651 0.557249129 -0.140168503 0.818429172 0.755883217 -0.12993741 0.641682804 0.189147174 0.473522037 0.860232651 0.0839893594 0.415441394 0.905734122 0.751630366 0.271398693 0.601161122 0.826965332 0.34294942 0.445549041 0.884456754 0.192777768 0.424939007 0.051589217 0.0250193179 0.998355031 0.104471698 0.0274505224 0.994149029 -0.500612855 -0.222557589 0.836573303 -0.744114816 -0.339945078 0.575091779 -0.508500993 -0.122083269 0.852362871 -0.772423744 -0.18757914 0.606774867 0.104471698 0.0274505224 0.994149029 0.051589217 0.0250193179 0.998355031 0.792994738 -0.182807833 0.581154644 0.898401141 -0.0530159697 0.435964197 0.847029388 -0.300163716 0.438683212 0.0983601734 -0.0533694811 0.993718863 0.0455648154 -0.186772078 0.98134613 -0.507518053 0.0183175616 0.8614465 -0.785276473 0.0202549994 0.618814051 -0.488970876 0.108823381 0.865485489 -0.768956959 0.15287672 0.620752752 0.0455648154 -0.186772078 0.98134613 0.0983601734 -0.0533694811 0.993718863 0.688481152 -0.326007515 0.647852421 0.734031081 -0.492434263 0.467661142 -0.0407969318 -0.396064579 0.9173159 -0.0795449689 -0.417107701 0.905369401 -0.453217268 0.170186043 0.875003457 -0.714287937 0.168614328 0.679236293 -0.0795449689 -0.417107701 0.905369401 -0.0407969318 -0.396064579 0.9173159 -0.00154072454 -0.000412504334 -0.999998808 -0.0525704101 0.99592191 0.0733217075 -0.16933316 0.981344879 0.0910420939 -0.285329789 0.951510727 0.11495313 -0.429343402 0.889936566 0.153874502 -0.59850508 0.775385797 0.201416507 -0.59850508 0.775385797 0.201416507 -0.760109842 0.597861052 0.254548967 -0.873523414 0.384711653 0.298251569 -0.931431353 0.169328511 0.322123319 -0.942810297 -0.0461173058 0.330124348 -0.912030041 -0.267520607 0.310860366 -0.830326796 -0.485326946 0.273889333 -0.706808269 -0.671877801 0.221364707 -0.566443026 -0.806748033 0.168226376 -0.566443026 -0.806748033 0.168226376 -0.436406434 -0.890387535 0.129458889 -0.32239455 -0.941286325 0.100209467 -0.217185408 -0.972930491 0.0789730102 -0.0958256423 -0.994156957 0.0496940948 0.0522179939 -0.995257318 0.0820749179 0.201895148 -0.972344697 0.117406465 0.366121322 -0.916729152 0.159883872 0.537032545 -0.816984296 0.210077986 0.537032545 -0.816984296 0.210077986 0.706586301 -0.653801024 0.270702958 0.845815361 -0.42254141 0.325661421 0.922262192 -0.153559566 0.354756296 0.928299904 0.0991666541 0.35836482 0.891077459 0.303914279 0.3370713 0.826409101 0.472441673 0.306344688 0.730807841 0.62835598 0.266624898 0.591885388 0.775223494 0.22068134 0.591885388 0.775223494 0.22068134 0.415005594 0.892920971 0.174535677 0.230449677 0.963866055 0.133623898 0.0757784992 0.991511405 0.105654456 </float_array>
          <technique_common>
            <accessor count="739" offset="0" source="#meshesQ0S-normals-array" stride="3">
              <param name="X" type="float" />
              <param name="Y" type="float" />
              <param name="Z" type="float" />
            </accessor>
          </technique_common>
        </source>
        <source id="meshesQ0S-tex0" name="meshesQ0S-tex0">
          <float_array id="meshesQ0S-tex0-array" count="1478"> 0.596623778 0.143417299 0.572369635 0.171224058 0.631469667 0.158706009 0.643885136 0.130283237 0.511545181 0.211712122 0.61553967 0.205420196 0.709012687 0.193397582 0.710299611 0.150690913 0.703131378 0.125590086 0.795153022 0.148019254 0.785692215 0.127611518 0.799637079 0.189390063 0.88143748 0.189390063 0.875729263 0.148019254 0.862800121 0.125162601 0.136960626 0.125162601 0.124031544 0.148019254 0.204607725 0.148019254 0.214068651 0.127611518 0.118323326 0.189390063 0.200123668 0.189390063 0.293328285 0.189390063 0.296417594 0.148019254 0.311559319 0.125162601 0.396116793 0.148019254 0.405444205 0.127611518 0.394542217 0.189390063 0.499760747 0.189390063 0.499760747 0.148019254 0.499760747 0.127611518 0.603404701 0.148019254 0.594077289 0.127611518 0.604979277 0.189390063 0.706193209 0.189390063 0.70310396 0.148019254 0.687962174 0.125162601 0.794913828 0.148019254 0.785453022 0.127611518 0.799397826 0.189390063 0.881198287 0.189390063 0.875490129 0.148019254 0.862560987 0.125162601 0.137199521 0.125162601 0.124270409 0.148019254 0.20484665 0.148019254 0.214307517 0.127611518 0.118562281 0.189390063 0.200362653 0.189390063 0.293457925 0.193406463 0.294157982 0.150696874 0.306937516 0.12559104 0.386361659 0.158729792 0.384840786 0.130289197 0.394343704 0.20545578 0.507009387 0.211396873 0.459696919 0.1705724 0.449198961 0.142678499 0.58187902 0.142678499 0.561994135 0.1705724 0.625528812 0.158729792 0.634446502 0.130289197 0.612750649 0.20545578 0.708315492 0.193406463 0.708814442 0.150696874 0.700559437 0.12559104 0.795153022 0.148019254 0.785692215 0.127611518 0.799637079 0.189390063 0.88143748 0.189390063 0.875729322 0.148019254 0.862800241 0.125162601 0.137438923 0.125162601 0.124509782 0.148019254 0.205085993 0.148019254 0.214546889 0.127611518 0.118801624 0.189390063 0.200601995 0.189390063 0.293806672 0.189390063 0.296895891 0.148019254 0.312037706 0.125162601 0.39659524 0.148019254 0.405922651 0.127611518 0.395020664 0.189390063 0.500239253 0.189390063 0.500239253 0.148019254 0.500239253 0.127611518 0.603883266 0.148019254 0.594555855 0.127611518 0.605457902 0.189390063 0.706671834 0.189390063 0.703582585 0.148019254 0.6884408 0.125162601 0.795392394 0.148019254 0.785931587 0.127611518 0.799876451 0.189390063 0.881676793 0.189390063 0.875968695 0.148019254 0.863039494 0.125162601 0.137200117 0.125162601 0.124270976 0.148019254 0.204847276 0.148019254 0.214308143 0.127611518 0.118562818 0.189390063 0.200363278 0.189390063 0.293906927 0.193397582 0.294648468 0.150690913 0.308505654 0.125590086 0.388321579 0.158706009 0.387979984 0.130283237 0.396137714 0.205420196 0.46376878 0.171224058 0.454824686 0.143417299 0.501009405 0.35374403 0.5 0.45399642 0.606835365 0.45399642 0.609880686 0.35240823 0.5 0.560831904 0.600655615 0.560831904 0.697480321 0.560831904 0.709604621 0.45399642 0.714427412 0.350404441 0.804241419 0.45399642 0.810997605 0.349736512 0.786643147 0.560831904 0.864896238 0.560831904 0.887298822 0.45399642 0.895899415 0.349736512 0.103861332 0.349736512 0.112461925 0.45399642 0.195519328 0.45399642 0.188763142 0.349736512 0.134864688 0.560831904 0.213117659 0.560831904 0.302280366 0.560831904 0.290156126 0.45399642 0.285501599 0.349736512 0.392925382 0.45399642 0.390552878 0.349736512 0.399105072 0.560831904 0.499760747 0.560831904 0.499760747 0.45399642 0.499760747 0.349736512 0.606596112 0.45399642 0.608968556 0.349736512 0.600416422 0.560831904 0.697241187 0.560831904 0.709365368 0.45399642 0.714019954 0.349736512 0.804002285 0.45399642 0.810758412 0.349736512 0.786404014 0.560831904 0.864657044 0.560831904 0.887059689 0.45399642 0.895660281 0.349736512 0.104100287 0.349736512 0.11270085 0.45399642 0.195758194 0.45399642 0.189002067 0.349736512 0.135103494 0.560831904 0.213356555 0.560831904 0.302519381 0.560831904 0.290395141 0.45399642 0.285843611 0.350405931 0.393164396 0.45399642 0.391204149 0.352414131 0.399344116 0.560831904 0.499999851 0.560831904 0.499999851 0.45399642 0.50061816 0.353752971 0.606835306 0.45399642 0.609619975 0.352414131 0.600655615 0.560831904 0.697480381 0.560831904 0.709604621 0.45399642 0.714362264 0.350405931 0.804241538 0.45399642 0.810997605 0.349736512 0.786643207 0.560831904 0.864896297 0.560831904 0.887298942 0.45399642 0.895899475 0.349736512 0.104339689 0.349736512 0.112940192 0.45399642 0.195997596 0.45399642 0.189241469 0.349736512 0.135342866 0.560831904 0.213595957 0.560831904 0.302758753 0.560831904 0.290634513 0.45399642 0.285979927 0.349736512 0.393403798 0.45399642 0.391031384 0.349736512 0.399583519 0.560831904 0.500239253 0.560831904 0.500239253 0.45399642 0.500239253 0.349736512 0.607074738 0.45399642 0.609447181 0.349736512 0.600894988 0.560831904 0.697719753 0.560831904 0.709843993 0.45399642 0.71449858 0.349736512 0.80448091 0.45399642 0.811236978 0.349736512 0.78688252 0.560831904 0.86513555 0.560831904 0.887538254 0.45399642 0.896138787 0.349736512 0.104100883 0.349736512 0.112701416 0.45399642 0.19575882 0.45399642 0.189002752 0.349736512 0.135104001 0.560831904 0.21335721 0.560831904 0.302519917 0.560831904 0.290395737 0.45399642 0.285909414 0.350404441 0.393164754 0.45399642 0.391465306 0.35240823 0.399344444 0.560831904 0.5 0.659213185 0.590570629 0.659213185 0.5 0.745556772 0.577038527 0.745556772 0.651144922 0.745556772 0.677694201 0.659213185 0.757923484 0.659213185 0.719387174 0.745556772 0.77927947 0.220100284 0.82833612 0.171424747 0.757923484 0.113751054 0.719387174 0.171043634 0.82833612 0.659213185 0.171424747 0.659213185 0.241837382 0.659213185 0.82833612 0.27999258 0.886009812 0.241837382 0.348234773 0.745556772 0.322066605 0.659213185 0.27999258 0.745556772 0.409190118 0.659213185 0.422341168 0.745556772 0.499379694 0.745556772 0.499760747 0.659213185 0.590331435 0.659213185 0.576418221 0.745556772 0.6505723 0.745556772 0.677455008 0.659213185 0.75768429 0.659213185 0.718957424 0.745556772 0.779279709 0.778992712 0.828336358 0.828096926 0.886009991 0.75768429 0.828336358 0.718957424 0.828096926 0.659213185 0.171663612 0.659213185 0.242076248 0.659213185 0.719387412 0.828097045 0.757923722 0.885770679 0.34885487 0.745556772 0.32230556 0.659213185 0.280612618 0.745556772 0.409429133 0.659213185 0.422961324 0.745556772 0.499999881 0.745556772 0.499999881 0.659213185 0.590570629 0.659213185 0.577038467 0.745556772 0.651144981 0.745556772 0.677694201 0.659213185 0.757923484 0.659213185 0.719387174 0.745556772 0.22072053 0.779040396 0.17166388 0.828097045 0.242076516 0.885770798 0.280612826 0.828097105 0.82833612 0.659213185 0.171902955 0.659213185 0.24231562 0.659213185 0.171663821 0.719148099 0.113990188 0.75768435 0.349094152 0.745556772 0.322544932 0.659213185 0.280851901 0.745556772 0.409668505 0.659213185 0.423200637 0.745556772 0.500239193 0.745556772 0.500239253 0.659213185 0.590809941 0.659213185 0.57727778 0.745556772 0.651384234 0.745556772 0.677933514 0.659213185 0.758162856 0.659213185 0.719626486 0.745556772 0.220720768 0.220481277 0.171664119 0.171424568 0.113990366 0.241837144 0.171664 0.280373514 0.828575432 0.659213185 0.171664119 0.659213185 0.242076874 0.659213185 0.280613065 0.171424627 0.242076874 0.113750935 0.348855317 0.745556772 0.322306097 0.659213185 0.280613065 0.745556772 0.409429491 0.659213185 0.422961593 0.745556772 0.5 0.104752421 0.5 0.189309955 0.560517371 0.194757223 0.577038527 0.112271488 0.5 0.266373277 0.536380231 0.315674186 0.58911097 0.28291291 0.618731499 0.211783886 0.651144922 0.13453126 0.672338963 0.240312994 0.603602171 0.342565596 0.664655685 0.332966805 0.719387174 0.278849244 0.757923484 0.325897455 0.655051589 0.394015014 0.715133071 0.40851146 0.786643207 0.379504919 0.864896297 0.348234773 0.804241538 0.437719047 0.887298942 0.422341168 0.68289578 0.461236894 0.73285836 0.49762243 0.810260415 0.498236418 0.89496094 0.499379694 0.804241538 0.558753848 0.887298942 0.576418221 0.682895839 0.533997416 0.715133131 0.587156892 0.786643267 0.617158473 0.864896417 0.6505723 0.757923663 0.671337605 0.655051708 0.602172077 0.664655805 0.663887262 0.719387352 0.718957543 0.672339141 0.75768441 0.60360229 0.654574275 0.589111149 0.714788079 0.618731618 0.786404133 0.651145101 0.864657164 0.56051755 0.804002523 0.577038646 0.887059808 0.536380291 0.682418585 0.50000006 0.732513428 0.500000119 0.810021341 0.500000119 0.894721866 0.439482629 0.804002523 0.422961533 0.887059867 0.463619828 0.682418585 0.41088903 0.714788139 0.381268501 0.786404133 0.348855019 0.864657164 0.327661037 0.757684469 0.396397829 0.654574335 0.335344315 0.664310813 0.280612767 0.719148159 0.242076397 0.672099888 0.344948411 0.603124857 0.284866929 0.588766098 0.213356733 0.618492365 0.135103703 0.650905848 0.195758462 0.560278296 0.112701058 0.576799393 0.317104161 0.535902917 0.26714164 0.499655008 0.189739585 0.499760807 0.10503912 0.499760807 0.195758522 0.439243376 0.112701178 0.42272222 0.31710422 0.463142395 0.284866989 0.410543919 0.213356853 0.381029308 0.135103881 0.348615766 0.242076635 0.327421784 0.344948471 0.395920515 0.335344374 0.334999263 0.280612946 0.280373573 0.327661216 0.241837263 0.396397948 0.344471097 0.410889149 0.284521937 0.38126874 0.213117599 0.348855317 0.134864569 0.439482689 0.195519328 0.422961593 0.112461984 0.463619828 0.316626906 0.296868622 0.0186408758 0.344720483 0.0169409513 0.361681759 -0.00333082676 0.356114894 -0.00915026665 0.383833826 0.0161720514 0.395186186 -0.00640654564 0.638318241 0.120808959 0.604813814 0.135172486 0.691494346 0.0182248354 0.612020016 -0.0117499828 0.588279843 -0.00551998615 0.601905227 0.0163936615 0.4639889 0.135172486 0.411720157 0.120808959 0.527452528 0.0155220032 0.5360111 -0.00900614262 0.214307785 0.0661870241 0.236791879 0.0818212032 0.289494395 0.0672904253 0.137199849 0.136960626 0.215045065 0.132629454 0.281710029 0.12899673 0.862799883 0.136960506 0.785691857 0.0661868453 0.763207734 0.0818209648 0.784954548 0.132629275 0.692761898 0.0672903061 0.695403218 0.128996611 0.066426158 0.214068651 0.0820603371 0.236552715 0.132868588 0.214805901 0.0178341269 0.311559319 0.0675296187 0.305698335 0.129235923 0.300261617 -0.015447855 0.405444205 -0.00904375315 0.431355238 0.015692085 0.405703127 -0.0239777565 0.499760747 -0.0124453902 0.499760747 0.014841646 0.499760747 0.982165813 0.3115592 0.933573663 0.214068413 0.917939425 0.236552536 0.932470262 0.305698216 0.867131114 0.214805722 0.870763898 0.300261497 1.02397776 0.499760747 1.01544774 0.405444145 1.00904369 0.431355119 1.01244533 0.499760747 0.984307766 0.405703008 0.985158205 0.499760687 -0.015447855 0.594077289 -0.00904375315 0.568166316 0.0178339183 0.687962174 0.0156919956 0.593818426 0.0664259493 0.785453022 0.0820601285 0.762968898 0.0675294101 0.693823218 0.137199521 0.862560987 0.132868379 0.784715652 0.129235655 0.699259877 0.207795918 0.79196465 0.207795918 0.701072097 0.215044826 0.866892219 0.301506162 0.870524883 0.299638748 0.79196465 0.297384381 0.701072156 0.401192665 0.79196465 0.392175168 0.701072156 0.40141356 0.871735811 0.488740772 0.871735811 0.488280118 0.79196465 0.472570509 0.701072216 0.612090945 0.701072216 0.626947999 0.79196465 0.664651871 0.79196465 0.656202674 0.701072216 0.628297687 0.871735811 0.665465474 0.871735871 0.715213418 0.870524943 0.716822207 0.79196471 0.714709878 0.701072216 0.792203784 0.79196471 0.792203724 0.701072216 0.784954906 0.866892338 0.862800241 0.862561107 0.867131352 0.784715772 0.870763958 0.699259996 0.917939663 0.762969017 0.932470381 0.693823278 0.933573842 0.785453081 0.982165933 0.687962294 0.984307885 0.593818426 1.00904369 0.568166316 1.01544785 0.594077349 0.937313914 0.60236913 0.937313914 0.499760687 0.871974826 0.499760687 0.871974826 0.60236913 0.792203665 0.60236907 0.792203665 0.499760747 0.705446184 0.499760747 0.710621774 0.60236913 0.639850378 0.60236913 0.619148195 0.499760747 0.546891332 0.499760747 0.583261311 0.60236913 0.441183507 0.60236907 0.37411797 0.60236907 0.403119534 0.499760747 0.352286458 0.499760747 0.287412256 0.499760747 0.292870104 0.60236907 0.207796007 0.60236907 0.207796067 0.499760747 0.128024936 0.499760747 0.128024876 0.60236907 0.0626858771 0.60236907 0.0626859367 0.499760747 0.214307517 0.933334708 0.236791641 0.917700529 0.306937516 0.981368065 0.304859728 0.932231188 0.384840786 1.01171649 0.404790461 1.00514793 0.389703691 0.983154535 0.453964561 0.134936333 0.404790461 0.120808959 0.458391935 0.984059036 0.453964561 1.00876558 0.600472748 0.983699679 0.588504612 1.00732803 0.626096189 1.00393736 0.645587802 0.982851982 0.58187902 1.01960599 0.634446502 1.01027894 0.700559437 0.98113811 0.708138049 0.932231307 0.763208151 0.917700648 0.785692215 0.933334768 0.658910811 0.9370749 0.616604805 0.9370749 0.47438103 0.9370749 0.39308098 0.93707484 0.0626859963 0.397152424 0.128024995 0.397152424 0.207796097 0.397152424 0.207796127 0.298449397 0.282327175 0.397152424 0.278906226 0.298449397 0.331946194 0.397152364 0.31826216 0.298449337 0.367379189 0.397152364 0.34321624 0.298449397 0.482659757 0.298449337 0.509413064 0.397152364 0.597649217 0.397152364 0.582238257 0.298449278 0.700071454 0.397152364 0.69621861 0.298449337 0.792203665 0.397152364 0.792203605 0.298449278 0.871974826 0.397152364 0.937313855 0.397152305 0.207796127 0.207556963 0.278440565 0.207556903 0.316399455 0.207556963 0.322228342 0.127785861 0.701550603 0.145570099 0.792443037 0.145570099 0.792443037 0.120808959 0.701550663 0.120808959 0.350159764 0.127785802 0.339884609 0.207556963 0.489635289 0.127785742 0.478464633 0.207556844 0.57979995 0.207556844 0.586225748 0.127785802 0.695609033 0.207556844 0.792203546 0.207556844 0.331619024 0.0624468327 0.366817296 0.0624468327 0.508979201 0.0624467731 0.597407401 0.0624467731 0.403376222 -0.0175383091 0.438186049 -0.020168066 0.453294009 -0.0321292877 0.427630365 -0.0313868523 0.470886528 -0.0221741199 0.478704959 -0.0360488892 0.488454789 -0.0470255613 0.512773156 0.200647116 0.49240303 0.184679508 0.517577648 1.02360415 0.488624185 1.02354765 0.49240303 1.03624177 0.512773156 1.03873777 0.488624185 0.174491286 0.546972334 1.02210999 0.534908473 1.03503132 0.561994135 1.03436446 0.507009387 1.05042326 0.521295071 0.20405364 0.498892128 0.187404692 0.502834976 -0.022767663 0.501107872 -0.0343184471 0.497165024 0.177476287 1.01753831 0.143417299 1.00640655 0.135172486 1.00797904 0.178262949 1.02016807 0.177476287 0.983827949 0.137432218 0.984221101 0.187301874 0.449753284 0.0155736208 0.462471277 -0.00879991055 0.428801119 -0.00797903538 0.418024272 0.0157788992 0.0155220032 0.137432218 -0.00900614262 0.135172486 -0.00962090492 0.178262949 0.0153684616 0.187301874 0.545175314 -0.0213010311 0.496141434 -0.00962090492 0.481482267 0.0153684616 0.298927814 0.145570099 0.20803532 0.145570099 0.20803532 0.21985352 0.298927814 0.21985352 0.128264189 0.144532621 0.128264189 0.215703547 0.128264189 0.263150811 0.20803532 0.269375801 0.298927814 0.269375801 0.871735811 0.144532621 0.79196465 0.145570099 0.79196465 0.21985352 0.871735811 0.215703547 0.701072216 0.145570099 0.701072216 0.21985352 0.701072216 0.269375801 0.79196465 0.269375801 0.871735811 0.263150811 0.60236913 0.145570099 0.60236907 0.21985352 0.499760747 0.145570099 0.499760747 0.21985352 0.499760747 0.269375801 0.60236907 0.269375801 0.500239253 0.145570099 0.3976309 0.145570099 0.3976309 0.21985352 0.500239253 0.21985352 0.3976309 0.269375801 0.500239253 0.269375801 0.0159409642 0.137724161 -0.00876557827 0.134936333 -0.00966882706 0.177318513 0.0157151222 0.188469768 0.449198961 1.02168667 0.491479576 1.00966883 0.523165047 1.00921488 0.533361197 0.984171331 0.502117276 0.984284878 1.01960599 0.142678499 1.00732803 0.134936333 1.00876093 0.177318513 1.02210999 0.174491286 0.983699679 0.137724161 0.984057903 0.188469768 0.554850459 1.00876093 0.564605117 0.984057903 0.9370749 0.141420126 0.9370749 0.203253567 0.9370749 0.244475842 0.984171331 0.222300231 0.0629251301 0.141420126 0.0629251301 0.203253567 0.0158286691 0.222300231 0.0629251301 0.244475842 0.602847636 0.145570099 0.602847636 0.21985352 0.701550663 0.21985352 0.602847636 0.269375801 0.701550663 0.269375801 0.397152364 0.145570099 0.397152364 0.21985352 0.298449337 0.145570099 0.298449337 0.21985352 0.298449337 0.269375801 0.397152364 0.269375801 0.872214198 0.144462407 0.792443097 0.21985352 0.872214198 0.21542275 0.792443156 0.269375801 0.872214258 0.262729645 0.207556844 0.145570099 0.207556844 0.21985352 0.127785742 0.144462407 0.127785802 0.21542275 0.127785742 0.262729645 0.207556844 0.269375801 0.937553167 0.141139269 0.937553167 0.202130318 0.937553167 0.242790937 0.984426379 0.220548272 0.0624467731 0.141139328 0.0624468327 0.202130318 0.0155736208 0.220548272 0.0624468327 0.242790937 0.5 0.498808146 0.504037619 0.275111914 0.610562742 0.269768476 0.712309361 0.26175344 0.807190657 0.259081721 0.8910532 0.259081721 0.108707547 0.259081721 0.192570031 0.259081721 0.288124323 0.259081721 0.391889691 0.259081721 0.499760747 0.259081721 0.607631803 0.259081721 0.711397231 0.259081721 0.806951523 0.259081721 0.890814066 0.259081721 0.108946502 0.259081721 0.192808986 0.259081721 0.288775474 0.2617594 0.393777549 0.269792259 0.502473056 0.275147498 0.60951972 0.269792259 0.71204865 0.2617594 0.807190716 0.259081721 0.891053259 0.259081721 0.109185815 0.259081721 0.193048328 0.259081721 0.28860265 0.259081721 0.392368168 0.259081721 0.500239253 0.259081721 0.608110368 0.259081721 0.711875856 0.259081721 0.807430089 0.259081721 0.891292632 0.259081721 0.108947039 0.259081721 0.192809641 0.259081721 0.28903687 0.26175344 0.394820929 0.269768476 </float_array>
          <technique_common>
            <accessor count="739" offset="0" source="#meshesQ0S-tex0-array" stride="2">
              <param name="S" type="float" />
              <param name="T" type="float" />
            </accessor>
          </technique_common>
        </source>
        <vertices id="meshesQ0S-vertices">
          <input semantic="POSITION" source="#meshesQ0S-positions" />
        </vertices>
        <polylist count="1112" material="defaultMaterial">
          <input offset="0" semantic="VERTEX" source="#meshesQ0S-vertices" />
          <input offset="0" semantic="NORMAL" source="#meshesQ0S-normals" />
          <input offset="0" semantic="TEXCOORD" source="#meshesQ0S-tex0" set="0" />
          <vcount>3 3 3 3 3 3 3 3 3 3 3 3 3 3 3 3 3 3 3 3 3 3 3 3 3 3 3 3 3 3 3 3 3 3 3 3 3 3 3 3 3 3 3 3 3 3 3 3 3 3 3 3 3 3 3 3 3 3 3 3 3 3 3 3 3 3 3 3 3 3 3 3 3 3 3 3 3 3 3 3 3 3 3 3 3 3 3 3 3 3 3 3 3 3 3 3 3 3 3 3 3 3 3 3 3 3 3 3 3 3 3 3 3 3 3 3 3 3 3 3 3 3 3 3 3 3 3 3 3 3 3 3 3 3 3 3 3 3 3 3 3 3 3 3 3 3 3 3 3 3 3 3 3 3 3 3 3 3 3 3 3 3 3 3 3 3 3 3 3 3 3 3 3 3 3 3 3 3 3 3 3 3 3 3 3 3 3 3 3 3 3 3 3 3 3 3 3 3 3 3 3 3 3 3 3 3 3 3 3 3 3 3 3 3 3 3 3 3 3 3 3 3 3 3 3 3 3 3 3 3 3 3 3 3 3 3 3 3 3 3 3 3 3 3 3 3 3 3 3 3 3 3 3 3 3 3 3 3 3 3 3 3 3 3 3 3 3 3 3 3 3 3 3 3 3 3 3 3 3 3 3 3 3 3 3 3 3 3 3 3 3 3 3 3 3 3 3 3 3 3 3 3 3 3 3 3 3 3 3 3 3 3 3 3 3 3 3 3 3 3 3 3 3 3 3 3 3 3 3 3 3 3 3 3 3 3 3 3 3 3 3 3 3 3 3 3 3 3 3 3 3 3 3 3 3 3 3 3 3 3 3 3 3 3 3 3 3 3 3 3 3 3 3 3 3 3 3 3 3 3 3 3 3 3 3 3 3 3 3 3 3 3 3 3 3 3 3 3 3 3 3 3 3 3 3 3 3 3 3 3 3 3 3 3 3 3 3 3 3 3 3 3 3 3 3 3 3 3 3 3 3 3 3 3 3 3 3 3 3 3 3 3 3 3 3 3 3 3 3 3 3 3 3 3 3 3 3 3 3 3 3 3 3 3 3 3 3 3 3 3 3 3 3 3 3 3 3 3 3 3 3 3 3 3 3 3 3 3 3 3 3 3 3 3 3 3 3 3 3 3 3 3 3 3 3 3 3 3 3 3 3 3 3 3 3 3 3 3 3 3 3 3 3 3 3 3 3 3 3 3 3 3 3 3 3 3 3 3 3 3 3 3 3 3 3 3 3 3 3 3 3 3 3 3 3 3 3 3 3 3 3 3 3 3 3 3 3 3 3 3 3 3 3 3 3 3 3 3 3 3 3 3 3 3 3 3 3 3 3 3 3 3 3 3 3 3 3 3 3 3 3 3 3 3 3 3 3 3 3 3 3 3 3 3 3 3 3 3 3 3 3 3 3 3 3 3 3 3 3 3 3 3 3 3 3 3 3 3 3 3 3 3 3 3 3 3 3 3 3 3 3 3 3 3 3 3 3 3 3 3 3 3 3 3 3 3 3 3 3 3 3 3 3 3 3 3 3 3 3 3 3 3 3 3 3 3 3 3 3 3 3 3 3 3 3 3 3 3 3 3 3 3 3 3 3 3 3 3 3 3 3 3 3 3 3 3 3 3 3 3 3 3 3 3 3 3 3 3 3 3 3 3 3 3 3 3 3 3 3 3 3 3 3 3 3 3 3 3 3 3 3 3 3 3 3 3 3 3 3 3 3 3 3 3 3 3 3 3 3 3 3 3 3 3 3 3 3 3 3 3 3 3 3 3 3 3 3 3 3 3 3 3 3 3 3 3 3 3 3 3 3 3 3 3 3 3 3 3 3 3 3 3 3 3 3 3 3 3 3 3 3 3 3 3 3 3 3 3 3 3 3 3 3 3 3 3 3 3 3 3 3 3 3 3 3 3 3 3 3 3 3 3 3 3 3 3 3 3 3 3 3 3 3 3 3 3 3 3 3 3 3 3 3 3 3 3 3 3 3 3 3 3 3 3 3 3 3 3 3 3 3 3 3 3 3 3 3 3 3 3 3 3 3 3 3 3 3 3 3 3 3 3 3 3 3 3 3 3 3 3 3 3 3 3 3 3 3 3 3 3 3 3 3 3 3 3 3 3 3 3 3 3 3 3 3 3 3 3 3 3 3 3 3 3 3 3 3 3 3 3 3 3 3 3 3 3 3 3 3 3 3 3 3 3 3 3 3 3 3 3 3 3 3 3 3 3 3 3 3 3 3 3 3 3 3 3 3 3 3 3 3 3 3 3 3 3 3 3 3 3 3 3 3 3 3 3 3 3 3 3 3 3 3 3 3 3 3 3 3 3 3 3 3 3 3 3 3 3 3 3 3 3 3 3 3 3 3 3 3 3 3 3 3 3 3 3 3 3 3 3 3 3 3 3 3 3 3 3 3 3 3 3 3 3 3 3 3 3 3 3 3 3 3 3 3 3 3 3 3 3 3 3 3 3 3 3 3 3 3 3 3 3 3 3 3 3 3 3 3 3 3 3 </vcount>
          <p>0 1 2 2 3 0 4 5 2 2 1 4 6 7 2 2 5 6 8 3 2 2 7 8 8 7 9 9 10 8 6 11 9 9 7 6 12 13 9 9 11 12 14 10 9 9 13 14 15 16 17 17 18 15 19 20 17 17 16 19 21 22 17 17 20 21 23 18 17 17 22 23 23 22 24 24 25 23 21 26 24 24 22 21 27 28 24 24 26 27 29 25 24 24 28 29 29 28 30 30 31 29 27 32 30 30 28 27 33 34 30 30 32 33 35 31 30 30 34 35 35 34 36 36 37 35 33 38 36 36 34 33 39 40 36 36 38 39 41 37 36 36 40 41 42 43 44 44 45 42 46 47 44 44 43 46 48 49 44 44 47 48 50 45 44 44 49 50 50 49 51 51 52 50 48 53 51 51 49 48 54 55 51 51 53 54 56 52 51 51 55 56 57 58 59 59 60 57 54 61 59 59 58 54 62 63 59 59 61 62 64 60 59 59 63 64 64 63 65 65 66 64 62 67 65 65 63 62 68 69 65 65 67 68 70 66 65 65 69 70 71 72 73 73 74 71 75 76 73 73 72 75 77 78 73 73 76 77 79 74 73 73 78 79 79 78 80 80 81 79 77 82 80 80 78 77 83 84 80 80 82 83 85 81 80 80 84 85 85 84 86 86 87 85 83 88 86 86 84 83 89 90 86 86 88 89 91 87 86 86 90 91 91 90 92 92 93 91 89 94 92 92 90 89 95 96 92 92 94 95 97 93 92 92 96 97 98 99 100 100 101 98 102 103 100 100 99 102 104 105 100 100 103 104 106 101 100 100 105 106 106 105 107 107 108 106 104 109 107 107 105 104 4 110 107 107 109 4 111 108 107 107 110 111 112 113 114 114 115 112 116 117 114 114 113 116 118 119 114 114 117 118 120 115 114 114 119 120 120 119 121 121 122 120 118 123 121 121 119 118 124 125 121 121 123 124 126 122 121 121 125 126 127 128 129 129 130 127 131 132 129 129 128 131 133 134 129 129 132 133 135 130 129 129 134 135 135 134 136 136 137 135 133 138 136 136 134 133 139 140 136 136 138 139 141 137 136 136 140 141 141 140 142 142 143 141 139 144 142 142 140 139 145 146 142 142 144 145 147 143 142 142 146 147 147 146 148 148 149 147 145 150 148 148 146 145 151 152 148 148 150 151 153 149 148 148 152 153 154 155 156 156 157 154 158 159 156 156 155 158 160 161 156 156 159 160 162 157 156 156 161 162 162 161 163 163 164 162 160 165 163 163 161 160 166 167 163 163 165 166 168 164 163 163 167 168 168 167 169 169 170 168 166 171 169 169 167 166 172 173 169 169 171 172 174 170 169 169 173 174 174 173 175 175 176 174 172 177 175 175 173 172 178 179 175 175 177 178 180 176 175 175 179 180 181 182 183 183 184 181 185 186 183 183 182 185 187 188 183 183 186 187 189 184 183 183 188 189 189 188 190 190 191 189 187 192 190 190 188 187 193 194 190 190 192 193 195 191 190 190 194 195 195 194 196 196 197 195 193 198 196 196 194 193 199 200 196 196 198 199 201 197 196 196 200 201 201 200 202 202 203 201 199 204 202 202 200 199 205 206 202 202 204 205 207 203 202 202 206 207 208 209 210 210 211 208 212 213 210 210 209 212 214 215 210 210 213 214 216 211 210 210 215 216 216 215 217 217 218 216 214 219 217 217 215 214 116 113 217 217 219 116 112 218 217 217 113 112 116 220 221 221 117 116 222 223 221 221 220 222 224 225 221 221 223 224 118 117 221 221 225 118 118 225 226 226 123 118 224 227 226 226 225 224 228 229 230 230 231 228 124 123 226 226 232 124 131 233 234 234 132 131 228 235 236 236 229 228 237 238 234 234 239 237 133 132 234 234 238 133 133 238 240 240 138 133 237 241 240 240 238 237 242 243 240 240 241 242 139 138 240 240 243 139 139 243 244 244 144 139 242 245 244 244 243 242 246 247 244 244 245 246 145 144 244 244 247 145 145 247 248 248 150 145 246 249 248 248 247 246 250 251 252 252 253 250 151 150 248 248 254 151 158 255 256 256 159 158 250 257 258 258 251 250 259 260 256 256 261 259 160 159 256 256 260 160 160 260 262 262 165 160 259 263 262 262 260 259 264 265 262 262 263 264 166 165 262 262 265 166 166 265 266 266 171 166 264 267 266 266 265 264 268 269 266 266 267 268 172 171 266 266 269 172 172 269 270 270 177 172 268 271 270 270 269 268 272 273 274 274 275 272 178 177 270 270 276 178 185 277 278 278 186 185 272 279 280 280 273 272 281 282 278 278 283 281 187 186 278 278 282 187 187 282 284 284 192 187 281 285 284 284 282 281 286 287 284 284 285 286 193 192 284 284 287 193 193 287 288 288 198 193 286 289 288 288 287 286 290 291 288 288 289 290 199 198 288 288 291 199 199 291 292 292 204 199 290 293 292 292 291 290 294 295 296 296 297 294 205 204 292 292 298 205 212 299 300 300 213 212 294 301 302 302 295 294 303 304 300 300 305 303 214 213 300 300 304 214 214 304 306 306 219 214 303 307 306 306 304 303 222 220 306 306 307 222 116 219 306 306 220 116 308 309 310 310 311 308 312 313 310 310 309 312 314 315 310 310 313 314 316 311 310 310 315 316 316 315 317 317 231 316 314 318 317 317 315 314 319 320 317 317 318 319 228 231 317 317 320 228 228 320 321 321 235 228 319 322 321 321 320 319 323 324 321 321 322 323 325 235 321 321 324 325 325 324 326 326 327 325 323 328 326 326 324 323 329 330 326 326 328 329 331 327 326 326 330 331 331 330 332 332 333 331 329 334 332 332 330 329 335 336 332 332 334 335 337 333 332 332 336 337 337 336 338 338 253 337 335 339 338 338 336 335 340 341 338 338 339 340 250 253 338 338 341 250 250 341 342 342 257 250 340 343 342 342 341 340 344 345 342 342 343 344 346 257 342 342 345 346 346 345 347 347 348 346 344 349 347 347 345 344 350 351 347 347 349 350 352 348 347 347 351 352 352 351 353 353 354 352 350 355 353 353 351 350 356 357 353 353 355 356 358 354 353 353 357 358 358 357 359 359 275 358 356 360 359 359 357 356 361 362 359 359 360 361 272 275 359 359 362 272 272 362 363 363 279 272 361 364 363 363 362 361 365 366 363 363 364 365 367 279 363 363 366 367 367 366 368 368 369 367 365 370 368 368 366 365 371 372 368 368 370 371 373 369 368 368 372 373 373 372 374 374 375 373 371 376 374 374 372 371 377 378 374 374 376 377 379 375 374 374 378 379 379 378 380 380 297 379 377 381 380 380 378 377 382 383 380 380 381 382 294 297 380 380 383 294 294 383 384 384 301 294 382 385 384 384 383 382 386 387 384 384 385 386 388 301 384 384 387 388 388 387 389 389 390 388 386 391 389 389 387 386 312 309 389 389 391 312 308 390 389 389 309 308 392 393 394 394 395 392 396 397 394 394 393 396 0 3 398 398 399 0 400 401 402 402 403 400 111 404 405 405 108 111 406 403 402 402 407 406 392 408 409 409 410 392 411 412 409 409 408 411 413 410 409 409 412 413 414 415 416 416 417 414 400 418 416 416 415 400 419 417 416 416 418 419 411 420 421 421 422 411 423 424 421 421 420 423 425 422 421 421 424 425 423 426 427 427 428 423 429 430 427 427 426 429 431 428 427 427 430 431 432 433 434 434 435 432 414 436 434 434 433 414 437 435 434 434 436 437 438 439 440 440 441 438 432 442 440 440 439 432 443 441 440 440 442 443 429 444 445 445 430 429 446 447 445 445 444 446 431 430 445 445 447 431 446 448 449 449 450 446 451 452 449 449 448 451 453 450 449 449 452 453 453 452 454 454 455 453 451 456 454 454 452 451 457 458 454 454 456 457 459 455 454 454 458 459 459 458 460 460 461 459 457 462 460 460 458 457 463 464 460 460 462 463 465 461 460 460 464 465 466 467 468 468 469 466 470 471 468 468 467 470 472 473 468 468 471 472 474 469 468 468 473 474 474 473 475 475 476 474 472 477 475 475 473 472 478 479 475 475 477 478 480 476 475 475 479 480 480 479 481 481 482 480 478 483 481 481 479 478 484 482 481 481 483 484 443 485 486 486 441 443 484 487 486 486 485 484 438 441 486 486 487 438 484 485 488 488 482 484 443 489 488 488 485 443 490 491 488 488 489 490 480 482 488 488 491 480 480 491 492 492 476 480 490 493 492 492 491 490 494 495 492 492 493 494 474 476 492 492 495 474 474 495 496 496 469 474 494 497 496 496 495 494 498 499 496 496 497 498 466 469 496 496 499 466 465 500 501 501 461 465 502 503 501 501 500 502 504 505 501 501 503 504 459 461 501 501 505 459 459 505 506 506 455 459 504 507 506 506 505 504 508 509 506 506 507 508 453 455 506 506 509 453 453 509 510 510 450 453 508 511 510 510 509 508 431 447 510 510 511 431 446 450 510 510 447 446 451 512 513 513 456 451 514 515 513 513 512 514 457 456 513 513 515 457 514 516 517 517 518 514 56 519 520 520 52 56 521 518 517 517 522 521 523 524 525 525 526 523 527 528 525 525 524 527 529 526 525 525 528 529 472 530 531 531 477 472 529 532 531 531 530 529 478 477 531 531 532 478 529 530 533 533 526 529 472 471 533 533 530 472 470 534 533 533 471 470 523 526 533 533 534 523 521 535 536 536 518 521 463 462 536 536 535 463 457 515 536 536 462 457 514 518 536 536 515 514 423 428 537 537 424 423 431 511 537 537 428 431 508 538 537 537 511 508 425 424 537 537 538 425 425 538 539 539 540 425 508 507 539 539 538 508 504 541 539 539 507 504 542 540 539 539 541 542 542 541 543 543 544 542 504 503 543 543 541 504 502 545 543 543 503 502 546 544 543 543 545 546 547 548 549 549 550 547 498 497 549 549 548 498 494 551 549 549 497 494 552 550 549 549 551 552 552 551 553 553 554 552 494 493 553 553 551 494 490 555 553 553 493 490 437 554 553 553 555 437 437 555 556 556 435 437 490 489 556 556 555 490 443 442 556 556 489 443 432 435 556 556 442 432 411 422 557 557 412 411 425 540 557 557 422 425 542 558 557 557 540 542 413 412 557 557 558 413 413 558 559 559 560 413 542 544 559 559 558 542 561 562 563 563 564 561 565 560 559 559 566 565 567 568 569 569 570 567 547 550 569 569 568 547 552 571 569 569 550 552 419 570 569 569 571 419 419 571 572 572 417 419 552 554 572 572 571 552 437 436 572 572 554 437 414 417 572 572 436 414 392 410 573 573 393 392 413 560 573 573 410 413 565 574 573 573 560 565 396 393 573 573 574 396 406 575 576 576 403 406 567 570 576 576 575 567 419 418 576 576 570 419 400 403 576 576 418 400 577 578 579 579 580 577 581 582 579 579 578 581 583 580 579 579 582 583 54 584 585 585 55 54 586 587 588 588 589 586 56 55 585 585 590 56 527 591 592 592 593 527 586 589 592 592 591 586 594 593 592 592 589 594 4 595 596 596 110 4 581 597 598 598 582 581 111 110 596 596 599 111 600 601 602 602 603 600 604 605 602 602 601 604 606 607 608 608 609 606 581 578 608 608 607 581 610 611 612 612 613 610 614 597 615 615 407 614 581 607 615 615 597 581 606 616 615 615 607 606 617 618 619 619 620 617 621 622 619 619 618 621 623 624 619 619 622 623 625 620 619 619 624 625 626 627 628 628 629 626 630 631 628 628 627 630 632 633 628 628 631 632 634 629 628 628 633 634 630 635 636 636 631 630 637 638 636 636 635 637 639 640 636 636 638 639 632 631 636 636 640 632 641 642 643 643 644 641 617 620 643 643 642 617 625 645 643 643 620 625 646 644 643 643 645 646 647 648 649 649 650 647 651 587 652 652 522 651 586 653 652 652 587 586 654 655 652 652 653 654 656 657 658 658 659 656 660 661 658 658 657 660 654 653 662 662 663 654 586 591 662 662 653 586 660 664 665 665 661 660 626 629 665 665 664 626 634 666 665 665 629 634 667 661 665 665 666 667 621 668 669 669 622 621 647 650 669 669 668 647 670 671 669 669 650 670 623 622 669 669 671 623 561 672 673 673 674 561 641 644 673 673 672 641 646 675 673 673 644 646 676 674 673 673 675 676 637 677 678 678 638 637 679 680 678 678 677 679 681 682 678 678 680 681 639 638 678 678 682 639 683 562 684 684 685 683 561 674 684 684 562 561 676 686 684 684 674 676 687 685 684 684 686 687 679 688 689 689 680 679 690 691 689 689 688 690 692 693 689 689 691 692 681 680 689 689 693 681 604 694 695 695 605 604 683 685 695 695 694 683 687 696 695 695 685 687 697 605 695 695 696 697 690 698 699 699 691 690 610 613 699 699 698 610 700 701 699 699 613 700 692 691 699 699 701 692 312 391 702 702 313 312 386 385 702 702 391 386 382 381 702 702 385 382 377 376 702 702 381 377 371 370 702 702 376 371 365 364 702 702 370 365 361 360 702 702 364 361 356 355 702 702 360 356 350 349 702 702 355 350 344 343 702 702 349 344 340 339 702 702 343 340 335 334 702 702 339 335 329 328 702 702 334 329 323 322 702 702 328 323 319 318 702 702 322 319 314 313 702 702 318 314 4 703 704 704 5 4 112 115 704 704 703 112 120 705 704 704 115 120 6 5 704 704 705 6 6 705 706 706 11 6 120 122 706 706 705 120 126 707 706 706 122 126 12 11 706 706 707 12 19 708 709 709 20 19 127 130 709 709 708 127 135 710 709 709 130 135 21 20 709 709 710 21 21 710 711 711 26 21 135 137 711 711 710 135 141 712 711 711 137 141 27 26 711 711 712 27 27 712 713 713 32 27 141 143 713 713 712 141 147 714 713 713 143 147 33 32 713 713 714 33 33 714 715 715 38 33 147 149 715 715 714 147 153 716 715 715 149 153 39 38 715 715 716 39 46 717 718 718 47 46 154 157 718 718 717 154 162 719 718 718 157 162 48 47 718 718 719 48 48 719 720 720 53 48 162 164 720 720 719 162 168 721 720 720 164 168 54 53 720 720 721 54 54 721 722 722 61 54 168 170 722 722 721 168 174 723 722 722 170 174 62 61 722 722 723 62 62 723 724 724 67 62 174 176 724 724 723 174 180 725 724 724 176 180 68 67 724 724 725 68 75 726 727 727 76 75 181 184 727 727 726 181 189 728 727 727 184 189 77 76 727 727 728 77 77 728 729 729 82 77 189 191 729 729 728 189 195 730 729 729 191 195 83 82 729 729 730 83 83 730 731 731 88 83 195 197 731 731 730 195 201 732 731 731 197 201 89 88 731 731 732 89 89 732 733 733 94 89 201 203 733 733 732 201 207 734 733 733 203 207 95 94 733 733 734 95 102 735 736 736 103 102 208 211 736 736 735 208 216 737 736 736 211 216 104 103 736 736 737 104 104 737 738 738 109 104 216 218 738 738 737 216 112 703 738 738 218 112 4 109 738 738 703 4 </p>
        </polylist>
      </mesh>
    </geometry>
  </library_geometries>
  <library_controllers>
  </library_controllers>
  <library_visual_scenes>
    <visual_scene id="Sketchfab_Scene" name="Sketchfab_Scene">
      <node id="Sketchfab_model" name="Sketchfab_model" type="NODE">
        <matrix sid="matrix">1 0 0 0 0 2.22044605e-16 1 0 0 -1 2.22044605e-16 0 0 0 0 1</matrix>
        <node id="_96a534dea4764de094bb3d56071e76ccfbx" name="96a534dea4764de094bb3d56071e76ccfbx" type="NODE">
          <matrix sid="matrix">0.00100000005 0 0 0 0 2.22044615e-19 -0.00100000005 0 0 0.00100000005 2.22044615e-19 0 0 0 0 1</matrix>
          <node id="RootNode" name="RootNode" type="NODE">
            <matrix sid="matrix">1 0 0 0 0 1 0 0 0 0 1 0 0 0 0 1</matrix>
            <node id="Coffee_Bean001" name="Coffee_Bean001" type="NODE">
              <matrix sid="matrix">0.670345008 0 0 0 0 2.22044605e-16 0.423442006 0 0 -1 9.4023013e-17 0 0 0 0 1</matrix>
              <node id="Coffee_Bean001_Material_Z23_0" name="Coffee_Bean001_Material_#23_0" type="NODE">
                <matrix sid="matrix">1 0 0 0 0 1 0 0 0 0 1 0 0 0 0 1</matrix>
                <instance_geometry url="#meshesQ0S">
                  <bind_material>
                    <technique_common>
                      <instance_material symbol="defaultMaterial" target="#Material_23">
                        <bind_vertex_input semantic="CHANNEL0" input_semantic="TEXCOORD" input_set="0"/>
                      </instance_material>
                    </technique_common>
                  </bind_material>
                </instance_geometry>
              </node>
            </node>
          </node>
        </node>
      </node>
    </visual_scene>
  </library_visual_scenes>
  <scene>
    <instance_visual_scene url="#Sketchfab_Scene" />
  </scene>
</COLLADA>
